<svg width="56" height="56" viewBox="0 0 56 56" fill="none" xmlns="http://www.w3.org/2000/svg">
<circle cx="28" cy="28" r="22" fill="#C4C4C4" fill-opacity="0.4"/>
<g clip-path="url(#clip0_108_1601)">
<path d="M41 41H16V16H41V41Z" fill="#00C3FF"/>
<path d="M41 41H28.5V16H41V41Z" fill="#00C3FF"/>
<path d="M39.5352 39.5352H17.4648V17.4648H39.5352V39.5352Z" fill="#063E8B"/>
<path d="M39.5352 39.5352H28.5V17.4648H39.5352V39.5352Z" fill="#063E8B"/>
<path d="M28.4998 37.991C27.9129 37.991 27.3611 37.7624 26.9461 37.3474L19.6524 30.0537C19.2374 29.6387 19.0088 29.0869 19.0088 28.5C19.0088 27.9131 19.2374 27.3613 19.6524 26.9463L26.9461 19.6526C27.3611 19.2375 27.9129 19.009 28.4998 19.009C29.0867 19.009 29.6385 19.2375 30.0535 19.6526L37.3472 26.9463C37.7623 27.3613 37.9908 27.9131 37.9908 28.5C37.9908 29.0869 37.7623 29.6387 37.3472 30.0537L30.0535 37.3474C29.6385 37.7624 29.0867 37.991 28.4998 37.991ZM28.4998 20.4738C28.3042 20.4738 28.1203 20.55 27.9819 20.6884L20.6882 27.9821C20.5499 28.1204 20.4736 28.3043 20.4736 28.5C20.4736 28.6956 20.5499 28.8795 20.6882 29.0179L27.9819 36.3116C28.1202 36.4499 28.3042 36.5262 28.4998 36.5262C28.6955 36.5262 28.8793 36.4499 29.0177 36.3116L36.3114 29.0179C36.4498 28.8796 36.526 28.6956 36.526 28.5C36.526 28.3043 36.4498 28.1204 36.3114 27.9821L29.0177 20.6884C28.8793 20.55 28.6955 20.4738 28.4998 20.4738Z" fill="#CCEFFF"/>
<path d="M37.3474 26.9463L30.0537 19.6526C29.6387 19.2375 29.0869 19.009 28.5 19.009V20.4738C28.6957 20.4738 28.8795 20.55 29.0179 20.6884L36.3116 27.9821C36.45 28.1204 36.5262 28.3043 36.5262 28.5C36.5262 28.6956 36.45 28.8795 36.3116 29.0179L29.0179 36.3116C28.8796 36.4499 28.6957 36.5262 28.5 36.5262V37.991C29.0869 37.991 29.6387 37.7624 30.0537 37.3474L37.3474 30.0537C37.7625 29.6387 37.991 29.0869 37.991 28.5C37.991 27.9131 37.7625 27.3613 37.3474 26.9463Z" fill="#CCEFFF"/>
<path d="M31.0889 31.2148C30.1439 31.2148 29.4717 30.7851 29.2373 30.582L29.6279 29.9258C29.8779 30.1029 30.4532 30.4648 31.0654 30.4648C31.4623 30.4648 31.7373 30.2985 31.7373 30.0117C31.7373 29.6596 31.1565 29.5456 30.8389 29.457C30.5732 29.3841 29.3779 29.2161 29.3779 28.3164C29.3779 27.4502 30.1317 26.9648 30.9873 26.9648C31.8854 26.9648 32.3649 27.3295 32.5889 27.5273L32.167 28.1601C31.9586 28.0039 31.4948 27.707 30.9795 27.707C30.5997 27.707 30.3545 27.8693 30.3545 28.1679C30.3545 28.5406 31.0081 28.6472 31.1592 28.6836C31.4404 28.7566 32.7451 28.9557 32.7451 29.9179C32.7451 31.0553 31.5993 31.2148 31.0889 31.2148Z" fill="#00C3FF"/>
<path d="M24.7764 31.1367V25.5898H27.1279C28.2042 25.5898 28.8936 26.5794 28.8936 27.4336C28.8936 28.4403 28.1283 29.2773 27.167 29.2773H25.8545V31.1367H24.7764ZM25.8545 28.332H27.1045C27.4827 28.332 27.7998 27.9792 27.7998 27.4336C27.7998 26.9648 27.5152 26.5352 27.0576 26.5352H25.8545V28.332Z" fill="#00C3FF"/>
<path d="M28.5 26.2983V28.6039C28.7464 28.2839 28.8937 27.8751 28.8937 27.4336C28.8937 27.0482 28.7529 26.6355 28.5 26.2983Z" fill="#00C3FF"/>
</g>
<path d="M6.23991 45.621C9.23414 49.3185 13.1212 52.1921 17.5342 53.9705C21.9472 55.7489 26.7406 56.3734 31.462 55.7852C36.1833 55.1969 40.6769 53.4152 44.5186 50.6083C48.3603 47.8014 51.4234 44.0619 53.4187 39.7426C55.4141 35.4234 56.2759 30.6669 55.9228 25.9222C55.5697 21.1774 54.0134 16.6009 51.4008 12.6246C48.7881 8.64821 45.2053 5.4032 40.9905 3.19581C36.7756 0.988423 32.0679 -0.108537 27.3114 0.008468L27.4168 4.29207C31.4453 4.19297 35.4327 5.12206 39.0025 6.99165C42.5723 8.86124 45.6069 11.6097 47.8197 14.9775C50.0325 18.3453 51.3507 22.2215 51.6497 26.2401C51.9488 30.2588 51.2188 34.2874 49.5288 37.9456C47.8388 41.6039 45.2445 44.7712 41.9907 47.1485C38.7369 49.5259 34.931 51.0349 30.9322 51.5331C26.9333 52.0314 22.8735 51.5024 19.1358 49.9962C15.3981 48.4899 12.1059 46.0561 9.56991 42.9244L6.23991 45.621Z" fill="#3B5999"/>
<defs>
<clipPath id="clip0_108_1601">
<rect width="25" height="25" fill="white" transform="translate(16 16)"/>
</clipPath>
</defs>
</svg>
