<svg width="512" height="512" viewBox="0 0 512 512" fill="none" xmlns="http://www.w3.org/2000/svg">
<rect width="512" height="512" rx="58" fill="white"/>
<path d="M0 384L101.605 399.967C202.262 415.785 304.761 415.937 405.465 400.418L512 384V512H0V384Z" fill="#189FFF"/>
<path d="M109.92 477V440.365H115.519L131.534 467.109H128.603L144.356 440.365H149.956L150.008 477H143.571L143.519 450.466H144.879L131.482 472.813H128.446L114.839 450.466H116.409V477H109.92ZM171.836 477.366C168.975 477.366 166.428 476.756 164.195 475.535C161.962 474.279 160.2 472.569 158.909 470.406C157.618 468.243 156.973 465.783 156.973 463.027C156.973 460.235 157.618 457.776 158.909 455.647C160.2 453.484 161.962 451.792 164.195 450.571C166.428 449.35 168.975 448.739 171.836 448.739C174.732 448.739 177.296 449.35 179.529 450.571C181.797 451.792 183.559 453.467 184.815 455.595C186.106 457.723 186.752 460.2 186.752 463.027C186.752 465.783 186.106 468.243 184.815 470.406C183.559 472.569 181.797 474.279 179.529 475.535C177.296 476.756 174.732 477.366 171.836 477.366ZM171.836 471.766C173.441 471.766 174.871 471.418 176.128 470.72C177.384 470.022 178.36 469.01 179.058 467.684C179.791 466.359 180.157 464.806 180.157 463.027C180.157 461.212 179.791 459.66 179.058 458.369C178.36 457.043 177.384 456.031 176.128 455.333C174.871 454.635 173.458 454.287 171.888 454.287C170.283 454.287 168.853 454.635 167.597 455.333C166.376 456.031 165.399 457.043 164.666 458.369C163.933 459.66 163.567 461.212 163.567 463.027C163.567 464.806 163.933 466.359 164.666 467.684C165.399 469.01 166.376 470.022 167.597 470.72C168.853 471.418 170.266 471.766 171.836 471.766ZM204.835 477.366C202.148 477.366 199.724 476.773 197.56 475.587C195.432 474.366 193.757 472.691 192.536 470.563C191.315 468.434 190.704 465.922 190.704 463.027C190.704 460.131 191.315 457.619 192.536 455.49C193.757 453.362 195.432 451.705 197.56 450.518C199.724 449.332 202.148 448.739 204.835 448.739C207.173 448.739 209.266 449.262 211.115 450.309C212.964 451.321 214.43 452.874 215.511 454.967C216.593 457.06 217.134 459.747 217.134 463.027C217.134 466.271 216.61 468.958 215.564 471.086C214.517 473.18 213.069 474.75 211.22 475.796C209.371 476.843 207.242 477.366 204.835 477.366ZM205.62 471.766C207.19 471.766 208.586 471.418 209.807 470.72C211.063 470.022 212.057 469.01 212.79 467.684C213.557 466.359 213.941 464.806 213.941 463.027C213.941 461.212 213.557 459.66 212.79 458.369C212.057 457.043 211.063 456.031 209.807 455.333C208.586 454.635 207.19 454.287 205.62 454.287C204.05 454.287 202.637 454.635 201.381 455.333C200.16 456.031 199.165 457.043 198.398 458.369C197.665 459.66 197.299 461.212 197.299 463.027C197.299 464.806 197.665 466.359 198.398 467.684C199.165 469.01 200.16 470.022 201.381 470.72C202.637 471.418 204.05 471.766 205.62 471.766ZM214.098 477V470.406L214.36 462.974L213.837 455.543V438.167H220.326V477H214.098ZM242.073 477.366C238.967 477.366 236.246 476.756 233.908 475.535C231.606 474.279 229.809 472.569 228.518 470.406C227.262 468.243 226.634 465.783 226.634 463.027C226.634 460.235 227.244 457.776 228.466 455.647C229.722 453.484 231.431 451.792 233.594 450.571C235.792 449.35 238.287 448.739 241.078 448.739C243.8 448.739 246.225 449.332 248.353 450.518C250.481 451.705 252.156 453.379 253.377 455.543C254.598 457.706 255.209 460.253 255.209 463.184C255.209 463.463 255.191 463.777 255.156 464.126C255.156 464.474 255.139 464.806 255.104 465.12H231.815V460.776H251.65L249.086 462.137C249.12 460.532 248.789 459.119 248.091 457.898C247.393 456.677 246.434 455.717 245.213 455.019C244.026 454.321 242.648 453.973 241.078 453.973C239.473 453.973 238.06 454.321 236.839 455.019C235.653 455.717 234.711 456.694 234.013 457.95C233.35 459.171 233.019 460.619 233.019 462.294V463.341C233.019 465.015 233.402 466.498 234.17 467.789C234.938 469.08 236.019 470.074 237.415 470.772C238.81 471.47 240.415 471.819 242.23 471.819C243.8 471.819 245.213 471.575 246.469 471.086C247.725 470.598 248.841 469.83 249.818 468.783L253.325 472.813C252.069 474.279 250.481 475.413 248.562 476.215C246.678 476.983 244.515 477.366 242.073 477.366ZM261.493 477V449.053H267.721V456.746L266.988 454.496C267.825 452.612 269.134 451.181 270.913 450.204C272.727 449.227 274.978 448.739 277.664 448.739V454.967C277.385 454.897 277.123 454.862 276.879 454.862C276.635 454.827 276.391 454.81 276.146 454.81C273.669 454.81 271.698 455.543 270.233 457.008C268.767 458.438 268.035 460.584 268.035 463.445V477H261.493ZM299.071 448.739C301.304 448.739 303.293 449.175 305.038 450.047C306.817 450.92 308.213 452.263 309.224 454.077C310.236 455.857 310.742 458.159 310.742 460.985V477H304.2V461.823C304.2 459.346 303.607 457.496 302.421 456.275C301.269 455.054 299.647 454.444 297.554 454.444C296.018 454.444 294.658 454.758 293.471 455.386C292.285 456.014 291.361 456.956 290.698 458.212C290.07 459.433 289.756 460.985 289.756 462.87V477H283.214V449.053H289.442V456.589L288.343 454.287C289.32 452.507 290.733 451.146 292.582 450.204C294.466 449.227 296.629 448.739 299.071 448.739ZM351.089 477.523C348.298 477.523 345.699 477.07 343.291 476.163C340.919 475.221 338.843 473.912 337.063 472.238C335.319 470.528 333.958 468.522 332.981 466.219C332.004 463.916 331.516 461.404 331.516 458.683C331.516 455.961 332.004 453.449 332.981 451.146C333.958 448.844 335.336 446.855 337.116 445.18C338.895 443.471 340.971 442.162 343.344 441.255C345.716 440.313 348.315 439.842 351.141 439.842C354.142 439.842 356.881 440.365 359.358 441.412C361.835 442.424 363.929 443.942 365.638 445.965L361.242 450.1C359.916 448.669 358.434 447.605 356.794 446.907C355.154 446.175 353.374 445.808 351.456 445.808C349.537 445.808 347.775 446.122 346.17 446.75C344.6 447.378 343.221 448.268 342.035 449.419C340.884 450.571 339.977 451.931 339.314 453.502C338.686 455.072 338.372 456.799 338.372 458.683C338.372 460.567 338.686 462.294 339.314 463.864C339.977 465.434 340.884 466.795 342.035 467.946C343.221 469.097 344.6 469.987 346.17 470.615C347.775 471.243 349.537 471.557 351.456 471.557C353.374 471.557 355.154 471.208 356.794 470.51C358.434 469.778 359.916 468.679 361.242 467.213L365.638 471.4C363.929 473.389 361.835 474.907 359.358 475.953C356.881 477 354.125 477.523 351.089 477.523ZM382.735 477L366.721 440.365H374.1L388.387 473.494H384.148L398.593 440.365H405.396L389.434 477H382.735Z" fill="white"/>
<mask id="mask0_715_154" style="mask-type:alpha" maskUnits="userSpaceOnUse" x="17" y="6" width="377" height="377">
<g clip-path="url(#clip0_715_154)">
<path d="M155.538 243.99C153.397 244.336 151.207 243.818 149.449 242.549C147.69 241.28 146.508 239.365 146.162 237.225C145.816 235.085 146.334 232.895 147.602 231.136C148.871 229.378 150.786 228.196 152.926 227.849L265.907 209.571C268.048 209.225 270.238 209.743 271.996 211.011C273.754 212.28 274.937 214.195 275.283 216.335C275.629 218.476 275.111 220.666 273.842 222.424C272.574 224.183 270.659 225.365 268.518 225.711L155.538 243.99ZM162.066 284.34C159.925 284.686 157.735 284.168 155.977 282.899C154.218 281.631 153.036 279.716 152.69 277.575C152.344 275.435 152.862 273.245 154.13 271.487C155.399 269.728 157.314 268.546 159.454 268.2L272.435 249.921C274.576 249.575 276.766 250.093 278.524 251.362C280.282 252.63 281.465 254.545 281.811 256.686C282.157 258.826 281.639 261.016 280.371 262.775C279.102 264.533 277.187 265.715 275.046 266.061L162.066 284.34Z" fill="white"/>
<path fill-rule="evenodd" clip-rule="evenodd" d="M201.125 46.1444L93.2284 63.6003C86.8075 64.6391 81.0622 68.1861 77.2564 73.4609C73.4506 78.7357 71.8962 85.3064 72.935 91.7273L112.103 333.829C113.142 340.25 116.689 345.996 121.964 349.801C127.238 353.607 133.809 355.162 140.23 354.123L317.772 325.4C324.193 324.361 329.938 320.814 333.744 315.539C337.549 310.264 339.104 303.694 338.065 297.273L311.175 131.061C310.193 125.001 306.973 119.529 302.152 115.727L220.245 51.1005C217.576 48.9941 214.498 47.4657 211.206 46.6125C207.915 45.7593 204.482 45.5999 201.125 46.1444ZM89.0751 89.1161C88.7289 86.9758 89.247 84.7856 90.5156 83.0273C91.7842 81.269 93.6993 80.0867 95.8396 79.7404L203.736 62.2845C204.856 62.1022 206.001 62.1548 207.1 62.439C208.198 62.7233 209.225 63.233 210.115 63.9357L292.022 128.562C293.63 129.828 294.706 131.652 295.035 133.673L321.925 299.884C322.271 302.024 321.753 304.214 320.484 305.973C319.216 307.731 317.301 308.913 315.16 309.259L137.619 337.983C135.479 338.329 133.288 337.811 131.53 336.542C129.772 335.274 128.589 333.358 128.243 331.218L89.0751 89.1161Z" fill="white"/>
<path d="M209.082 63.0757L221.354 138.934L297.213 126.662" stroke="white" stroke-width="16.35" stroke-linecap="round" stroke-linejoin="round"/>
<path d="M165.285 136.959C167.601 136.656 169.833 135.892 171.849 134.711C173.864 133.53 175.622 131.956 177.017 130.083C178.413 128.21 179.418 126.075 179.973 123.806C180.528 121.537 180.622 119.18 180.249 116.874C179.876 114.568 179.044 112.36 177.801 110.382C176.559 108.404 174.932 106.695 173.017 105.358C171.102 104.02 168.938 103.081 166.653 102.595C164.368 102.11 162.009 102.088 159.715 102.532C155.264 103.393 151.322 105.953 148.725 109.67C146.129 113.388 145.082 117.97 145.806 122.446C146.53 126.922 148.969 130.941 152.605 133.65C156.241 136.359 160.789 137.546 165.285 136.959Z" fill="white"/>
<path fill-rule="evenodd" clip-rule="evenodd" d="M205.73 168.692C202.769 150.389 185.212 139.631 166.198 142.707C147.185 145.783 133.913 161.512 136.876 179.831L138.271 188.45C138.521 189.97 139.364 191.329 140.615 192.229C141.866 193.129 143.423 193.496 144.944 193.25L202.322 183.967C203.84 183.717 205.197 182.877 206.096 181.63C206.996 180.382 207.366 178.829 207.125 177.31L205.73 168.692Z" fill="white"/>
</g>
</mask>
<g mask="url(#mask0_715_154)">
<rect x="29" y="33" width="173" height="335" fill="#AAAAAA"/>
</g>
<path d="M246.525 236.625C244.291 236.625 242.148 235.737 240.568 234.157C238.988 232.577 238.1 230.434 238.1 228.2C238.1 225.966 238.988 223.823 240.568 222.243C242.148 220.663 244.291 219.775 246.525 219.775H364.475C366.709 219.775 368.852 220.663 370.432 222.243C372.012 223.823 372.9 225.966 372.9 228.2C372.9 230.434 372.012 232.577 370.432 234.157C368.852 235.737 366.709 236.625 364.475 236.625H246.525ZM246.525 278.75C244.291 278.75 242.148 277.862 240.568 276.282C238.988 274.702 238.1 272.559 238.1 270.325C238.1 268.091 238.988 265.948 240.568 264.368C242.148 262.788 244.291 261.9 246.525 261.9H364.475C366.709 261.9 368.852 262.788 370.432 264.368C372.012 265.948 372.9 268.091 372.9 270.325C372.9 272.559 372.012 274.702 370.432 276.282C368.852 277.862 366.709 278.75 364.475 278.75H246.525Z" fill="url(#paint0_linear_715_154)"/>
<path fill-rule="evenodd" clip-rule="evenodd" d="M325.467 42.85H212.825C206.122 42.85 199.693 45.5129 194.953 50.2529C190.213 54.9928 187.55 61.4216 187.55 68.125V320.875C187.55 327.578 190.213 334.007 194.953 338.747C199.693 343.487 206.122 346.15 212.825 346.15H398.175C404.878 346.15 411.307 343.487 416.047 338.747C420.787 334.007 423.45 327.578 423.45 320.875V147.354C423.448 141.026 421.073 134.929 416.794 130.268L344.103 51.0391C341.734 48.4567 338.854 46.3952 335.646 44.9855C332.438 43.5757 328.972 42.8485 325.467 42.85ZM204.4 68.125C204.4 65.8905 205.288 63.7476 206.868 62.1676C208.448 60.5876 210.591 59.7 212.825 59.7H325.467C326.636 59.6987 327.793 59.9407 328.863 60.4107C329.934 60.8806 330.895 61.5682 331.685 62.4297L404.376 141.658C405.804 143.211 406.598 145.244 406.6 147.354V320.875C406.6 323.109 405.712 325.252 404.132 326.832C402.552 328.412 400.409 329.3 398.175 329.3H212.825C210.591 329.3 208.448 328.412 206.868 326.832C205.288 325.252 204.4 323.109 204.4 320.875V68.125Z" fill="url(#paint1_linear_715_154)"/>
<path d="M330.775 61.3846V140.58H409.97" stroke="url(#paint2_linear_715_154)" stroke-width="16.85" stroke-linecap="round" stroke-linejoin="round"/>
<path d="M274.058 129.341C276.464 129.415 278.861 129.005 281.105 128.135C283.35 127.265 285.397 125.953 287.125 124.277C288.853 122.601 290.227 120.595 291.165 118.378C292.104 116.161 292.587 113.778 292.587 111.371C292.587 108.963 292.104 106.58 291.165 104.363C290.227 102.147 288.853 100.141 287.125 98.4645C285.397 96.7885 283.35 95.4767 281.105 94.6067C278.861 93.7368 276.464 93.3265 274.058 93.4001C269.387 93.5432 264.955 95.4992 261.702 98.8537C258.449 102.208 256.629 106.698 256.629 111.371C256.629 116.044 258.449 120.533 261.702 123.888C264.955 127.242 269.387 129.198 274.058 129.341Z" fill="url(#paint3_linear_715_154)"/>
<path fill-rule="evenodd" clip-rule="evenodd" d="M309.982 168.282C309.982 149.174 293.89 135.34 274.041 135.34C254.192 135.34 238.1 149.157 238.1 168.282V177.28C238.104 178.868 238.738 180.389 239.863 181.51C240.987 182.632 242.511 183.261 244.099 183.261H304C305.585 183.257 307.104 182.625 308.225 181.504C309.346 180.384 309.978 178.865 309.982 177.28V168.282Z" fill="url(#paint4_linear_715_154)"/>
<defs>
<linearGradient id="paint0_linear_715_154" x1="305.5" y1="219.775" x2="305.5" y2="278.75" gradientUnits="userSpaceOnUse">
<stop stop-color="#189FFF"/>
</linearGradient>
<linearGradient id="paint1_linear_715_154" x1="305.5" y1="42.85" x2="305.5" y2="346.15" gradientUnits="userSpaceOnUse">
<stop stop-color="#189FFF"/>
</linearGradient>
<linearGradient id="paint2_linear_715_154" x1="370.373" y1="61.3846" x2="370.373" y2="140.58" gradientUnits="userSpaceOnUse">
<stop stop-color="#189FFF"/>
</linearGradient>
<linearGradient id="paint3_linear_715_154" x1="274.608" y1="93.3917" x2="274.608" y2="129.35" gradientUnits="userSpaceOnUse">
<stop stop-color="#189FFF"/>
</linearGradient>
<linearGradient id="paint4_linear_715_154" x1="274.041" y1="135.34" x2="274.041" y2="183.261" gradientUnits="userSpaceOnUse">
<stop stop-color="#189FFF"/>
</linearGradient>
<clipPath id="clip0_715_154">
<rect width="327" height="327" fill="white" transform="translate(17.9866 59.2106) rotate(-9.18986)"/>
</clipPath>
</defs>
</svg>
