<svg width="34" height="34" viewBox="0 0 34 34" fill="none" xmlns="http://www.w3.org/2000/svg">
<g filter="url(#filter0_d_15_779)">
<rect x="5.98315" y="3" width="22.2966" height="22.2966" rx="11.1483" fill="#1769FF"/>
</g>
<path d="M14.6445 10.2847C15.0102 10.2847 15.3436 10.3172 15.6447 10.3822C15.9458 10.4471 16.2039 10.5536 16.419 10.7013C16.634 10.8493 16.8008 11.0459 16.9191 11.2913C17.0374 11.5366 17.0965 11.8396 17.0965 12.2003C17.0965 12.5899 17.0087 12.9146 16.833 13.1743C16.6573 13.434 16.3975 13.6468 16.0534 13.8128C16.5265 13.9499 16.8796 14.1899 17.1127 14.5324C17.3455 14.8752 17.4623 15.2883 17.4623 15.7716C17.4623 16.1611 17.387 16.4985 17.2364 16.7836C17.0859 17.0686 16.8832 17.3013 16.6289 17.4814C16.3743 17.6619 16.0839 17.7952 15.7577 17.882C15.4295 17.9687 15.0916 18.0123 14.7522 18.0117H11.0311V10.2847H14.6445ZM14.4295 13.4124C14.7306 13.4124 14.9779 13.3403 15.1715 13.1959C15.3651 13.0517 15.4619 12.8172 15.4619 12.4925C15.4619 12.3122 15.4296 12.1642 15.3651 12.0488C15.3006 11.9334 15.2146 11.8431 15.107 11.7783C14.9995 11.7133 14.8758 11.6684 14.736 11.6429C14.5922 11.6174 14.4464 11.6047 14.3004 11.6051H12.7196V13.4125H14.4295V13.4124ZM14.5262 16.6914C14.6911 16.6914 14.8489 16.6751 14.9994 16.6427C15.1499 16.6102 15.2825 16.5561 15.3973 16.4803C15.5119 16.4047 15.6034 16.3018 15.6716 16.1718C15.7396 16.042 15.7737 15.8761 15.7737 15.674C15.7737 15.2774 15.6625 14.9942 15.4403 14.8246C15.218 14.655 14.9241 14.5702 14.5585 14.5702H12.7196V16.6913L14.5262 16.6914ZM19.5871 16.5291C19.8165 16.753 20.1463 16.8646 20.5765 16.8646C20.8846 16.8646 21.15 16.7872 21.3722 16.6319C21.5945 16.477 21.7307 16.3128 21.7809 16.1395H23.1252C22.9102 16.8105 22.5802 17.2903 22.1358 17.5788C21.6912 17.8675 21.1534 18.0117 20.5226 18.0117C20.0853 18.0117 19.6908 17.9414 19.3396 17.8006C18.9882 17.66 18.6906 17.4598 18.4471 17.2C18.2033 16.9404 18.0151 16.6303 17.8824 16.2694C17.7497 15.9088 17.6835 15.5119 17.6835 15.079C17.6835 14.6607 17.7515 14.2711 17.8878 13.9103C18.0239 13.5497 18.2174 13.2376 18.4686 12.9741C18.7194 12.7109 19.0188 12.5034 19.3666 12.3519C19.7142 12.2003 20.0996 12.1247 20.5226 12.1247C20.9959 12.1247 21.408 12.2166 21.7595 12.4006C22.1107 12.5845 22.3993 12.8319 22.6252 13.1419C22.851 13.4522 23.014 13.8058 23.1146 14.2024C23.215 14.5993 23.2507 15.0141 23.2222 15.447H19.2108C19.2322 15.9447 19.3575 16.3056 19.5871 16.5291ZM21.3131 13.5855C21.1303 13.3836 20.8524 13.2825 20.4797 13.2825C20.2359 13.2825 20.0334 13.3241 19.8722 13.4069C19.7108 13.4901 19.5817 13.5927 19.4849 13.7154C19.3882 13.8381 19.3199 13.968 19.2806 14.105C19.2411 14.2421 19.2178 14.3648 19.2107 14.4729H21.6949C21.6232 14.0833 21.496 13.7876 21.3131 13.5855ZM18.9499 10.6771H22.0538V11.5431H18.9499V10.6771Z" fill="black"/>
<defs>
<filter id="filter0_d_15_779" x="0.67444" y="0.876514" width="32.9141" height="32.914" filterUnits="userSpaceOnUse" color-interpolation-filters="sRGB">
<feFlood flood-opacity="0" result="BackgroundImageFix"/>
<feColorMatrix in="SourceAlpha" type="matrix" values="0 0 0 0 0 0 0 0 0 0 0 0 0 0 0 0 0 0 127 0" result="hardAlpha"/>
<feOffset dy="3.18523"/>
<feGaussianBlur stdDeviation="2.65436"/>
<feColorMatrix type="matrix" values="0 0 0 0 0.0901961 0 0 0 0 0.411765 0 0 0 0 1 0 0 0 0.25 0"/>
<feBlend mode="normal" in2="BackgroundImageFix" result="effect1_dropShadow_15_779"/>
<feBlend mode="normal" in="SourceGraphic" in2="effect1_dropShadow_15_779" result="shape"/>
</filter>
</defs>
</svg>
