<svg width="56" height="56" viewBox="0 0 56 56" fill="none" xmlns="http://www.w3.org/2000/svg">
<circle cx="28" cy="28" r="22" fill="#C4C4C4" fill-opacity="0.4"/>
<path d="M17 15L19.2768 42L29.5 45L39.7196 42.0019L42 15H17Z" fill="#2196F3"/>
<path d="M37.1324 23.8293L36.8449 27.2212L35.977 37.3893L29.5002 39.27L29.4949 39.2718L23.0217 37.3893L22.5699 32.0718H25.7413L25.977 34.83L29.4967 35.8275L29.4984 35.8256L33.0234 34.8281L33.5038 30.2325L22.4181 30.2643L22.1038 27.1218L33.7699 26.9775L34.0056 23.6137L21.7913 23.6493L21.5859 20.52H29.5002H37.4145L37.1324 23.8293Z" fill="#FAFAFA"/>
<path d="M9.63035 6.86813C4.66072 11.1882 1.37261 17.1215 0.343838 23.6255C-0.684936 30.1294 0.611446 36.7879 4.00518 42.4308C7.39891 48.0737 12.6728 52.3401 18.9002 54.4801C25.1276 56.6201 31.91 56.4969 38.0555 54.1321C44.2011 51.7673 49.3166 47.3122 52.5031 41.5498C55.6897 35.7873 56.7434 29.0861 55.479 22.6238C54.2147 16.1615 50.7133 10.3515 45.59 6.21486C40.4667 2.07818 34.0494 -0.120531 27.4658 0.00509616L27.5476 4.28922C33.1237 4.18282 38.5589 6.04505 42.8982 9.54869C47.2374 13.0523 50.203 17.9732 51.2738 23.4466C52.3447 28.9199 51.4523 34.5956 48.7534 39.4762C46.0545 44.3568 41.7218 48.1301 36.5167 50.133C31.3116 52.1359 25.5672 52.2403 20.2928 50.4278C15.0184 48.6152 10.5515 45.0018 7.67716 40.2224C4.80278 35.4431 3.70478 29.8035 4.57612 24.2949C5.44746 18.7862 8.23238 13.7609 12.4415 10.102L9.63035 6.86813Z" fill="#3B5999"/>
</svg>
