<svg width="41" height="42" viewBox="0 0 41 42" fill="none" xmlns="http://www.w3.org/2000/svg">
<g filter="url(#filter0_d_15_785)">
<rect x="9.38989" y="5" width="22.2966" height="22.2966" rx="11.1483" fill="#FF458D"/>
</g>
<path d="M13.963 16.0715C13.963 14.8654 14.2601 13.7523 14.8544 12.7324C15.4486 11.7124 16.2557 10.9053 17.2756 10.3111C18.2955 9.71687 19.4086 9.41976 20.6148 9.41976C21.821 9.41976 22.9341 9.71687 23.954 10.3111C24.9739 10.9053 25.781 11.7124 26.3752 12.7324C26.9695 13.7523 27.2666 14.8654 27.2666 16.0715C27.2666 17.2777 26.9695 18.3908 26.3752 19.4107C25.781 20.4307 24.9739 21.2378 23.954 21.832C22.9341 22.4262 21.821 22.7233 20.6148 22.7233C19.4086 22.7233 18.2955 22.4262 17.2756 21.832C16.2557 21.2378 15.4486 20.4307 14.8544 19.4107C14.2601 18.3908 13.963 17.2777 13.963 16.0715ZM15.0672 16.0715C15.0672 17.4551 15.5328 18.6746 16.4641 19.73C16.8898 18.8963 17.5638 18.1026 18.4862 17.3487C19.4086 16.5948 20.3088 16.1203 21.1869 15.9252C21.0538 15.6148 20.9252 15.3354 20.801 15.0871C19.2756 15.5749 17.6259 15.8188 15.8521 15.8188C15.5062 15.8188 15.249 15.8143 15.0805 15.8055C15.0805 15.841 15.0783 15.8853 15.0739 15.9385C15.0694 15.9917 15.0672 16.0361 15.0672 16.0715ZM15.2402 14.7013C15.4353 14.719 15.7235 14.7279 16.1049 14.7279C17.586 14.7279 18.9918 14.5283 20.3221 14.1292C19.6481 12.9319 18.9075 11.9341 18.1004 11.1359C17.3998 11.4907 16.7989 11.9829 16.2978 12.6126C15.7967 13.2423 15.4442 13.9385 15.2402 14.7013ZM17.2224 20.4484C18.2246 21.2289 19.3554 21.6191 20.6148 21.6191C21.2711 21.6191 21.923 21.495 22.5704 21.2466C22.393 19.73 22.0472 18.2622 21.5327 16.8432C20.7168 17.0205 19.8942 17.4684 19.0649 18.1868C18.2357 18.9052 17.6215 19.6591 17.2224 20.4484ZM19.2578 10.7102C20.0383 11.5173 20.7611 12.5239 21.4263 13.7301C22.6325 13.2246 23.5416 12.5816 24.1535 11.8011C23.1247 10.9497 21.9452 10.524 20.6148 10.524C20.1625 10.524 19.7102 10.586 19.2578 10.7102ZM21.9052 14.6747C22.0383 14.9585 22.1891 15.3177 22.3576 15.7523C23.0139 15.6902 23.7278 15.6591 24.4994 15.6591C25.0493 15.6591 25.5948 15.6724 26.1358 15.699C26.0648 14.4929 25.6302 13.4197 24.832 12.4796C24.2555 13.3399 23.28 14.0716 21.9052 14.6747ZM22.6902 16.6835C23.1425 17.9961 23.4485 19.3442 23.6081 20.7278C24.3088 20.2755 24.8808 19.6945 25.3243 18.985C25.7677 18.2755 26.0338 17.5083 26.1225 16.6835C25.475 16.6392 24.8852 16.617 24.3531 16.617C23.8653 16.617 23.311 16.6392 22.6902 16.6835Z" fill="black"/>
<defs>
<filter id="filter0_d_15_785" x="0.0890255" y="0.630928" width="40.8984" height="40.8983" filterUnits="userSpaceOnUse" color-interpolation-filters="sRGB">
<feFlood flood-opacity="0" result="BackgroundImageFix"/>
<feColorMatrix in="SourceAlpha" type="matrix" values="0 0 0 0 0 0 0 0 0 0 0 0 0 0 0 0 0 0 127 0" result="hardAlpha"/>
<feOffset dy="4.9318"/>
<feGaussianBlur stdDeviation="4.65043"/>
<feColorMatrix type="matrix" values="0 0 0 0 0.917647 0 0 0 0 0.298039 0 0 0 0 0.537255 0 0 0 0.22 0"/>
<feBlend mode="normal" in2="BackgroundImageFix" result="effect1_dropShadow_15_785"/>
<feBlend mode="normal" in="SourceGraphic" in2="effect1_dropShadow_15_785" result="shape"/>
</filter>
</defs>
</svg>
