<svg width="34" height="34" viewBox="0 0 34 34" fill="none" xmlns="http://www.w3.org/2000/svg">
<g filter="url(#filter0_d_108_1900)">
<path d="M5 13.1739C5 9.44368 5 7.57856 5.72595 6.1538C6.36452 4.90054 7.38345 3.88161 8.63671 3.24304C10.0615 2.51709 11.9266 2.51709 15.6568 2.51709H18.3432C22.0734 2.51709 23.9385 2.51709 25.3633 3.24304C26.6165 3.88161 27.6355 4.90054 28.274 6.1538C29 7.57856 29 9.44368 29 13.1739V15.8603C29 19.5905 29 21.4556 28.274 22.8804C27.6355 24.1336 26.6165 25.1526 25.3633 25.7911C23.9385 26.5171 22.0734 26.5171 18.3432 26.5171H15.6568C11.9266 26.5171 10.0615 26.5171 8.63671 25.7911C7.38345 25.1526 6.36452 24.1336 5.72595 22.8804C5 21.4556 5 19.5905 5 15.8603V13.1739Z" fill="white"/>
</g>
<path d="M20.065 15.3353L20.4383 12.9656H18.1389V11.4254C18.1389 10.7774 18.4599 10.1443 19.4864 10.1443H20.5466V8.1264C19.9292 8.02804 19.3054 7.97483 18.6801 7.96719C16.7876 7.96719 15.552 9.10388 15.552 11.1588V12.9656H13.4541V15.3353H15.552V21.0668H18.1389V15.3353H20.065Z" fill="#337FFF"/>
<defs>
<filter id="filter0_d_108_1900" x="0.2" y="0.11709" width="33.6" height="33.6" filterUnits="userSpaceOnUse" color-interpolation-filters="sRGB">
<feFlood flood-opacity="0" result="BackgroundImageFix"/>
<feColorMatrix in="SourceAlpha" type="matrix" values="0 0 0 0 0 0 0 0 0 0 0 0 0 0 0 0 0 0 127 0" result="hardAlpha"/>
<feOffset dy="2.4"/>
<feGaussianBlur stdDeviation="2.4"/>
<feComposite in2="hardAlpha" operator="out"/>
<feColorMatrix type="matrix" values="0 0 0 0 0.570833 0 0 0 0 0.570833 0 0 0 0 0.570833 0 0 0 0.15 0"/>
<feBlend mode="normal" in2="BackgroundImageFix" result="effect1_dropShadow_108_1900"/>
<feBlend mode="normal" in="SourceGraphic" in2="effect1_dropShadow_108_1900" result="shape"/>
</filter>
</defs>
</svg>
