<svg width="23" height="24" viewBox="0 0 23 24" fill="none" xmlns="http://www.w3.org/2000/svg">
<circle cx="11.4907" cy="12.2049" r="11.4907" fill="#075FE4"/>
<path d="M6.81502 17.4141L5.77197 5.71417H17.2281L16.1838 17.415L11.4973 18.7142L6.81502 17.4141Z" fill="white"/>
<path d="M7.90576 8.10577L8.29258 12.4452H13.2662L13.0993 14.3064L11.4979 14.7394L9.89956 14.307L9.79269 13.112H8.3523L8.55828 15.4157L11.4975 16.2321L14.4406 15.4157L14.8351 11.0104H9.60501L9.47372 9.5409H14.9608H14.9652L15.0937 8.10577H7.90576Z" fill="#075FE4"/>
<path d="M11.5017 8.10565H7.90771L8.29453 12.4451H11.5017V11.0103H9.60696L9.47567 9.54078H11.5017V8.10565Z" fill="#075FE4"/>
<path d="M11.501 14.7384L11.4991 14.739L9.90078 14.3066L9.7939 13.1116H8.35352L8.55949 15.4153L11.4988 16.2317L11.501 16.2311V14.7384Z" fill="#075FE4"/>
</svg>
