<svg width="588" height="865" viewBox="0 0 588 865" fill="none" xmlns="http://www.w3.org/2000/svg">
<path d="M80.5976 0L15.7217 111.5C-15.3543 165.788 3.46428 234.999 57.7528 266.075C112.041 297.151 181.252 278.332 212.328 224.043L341.761 0H80.5976Z" fill="url(#paint0_linear_121_995)"/>
<path d="M267.014 0L222.05 76.6064C207.834 101.439 216.443 133.092 241.276 147.308C266.109 161.524 297.762 152.915 311.977 128.082L387.063 0.159058L267.014 0Z" fill="#50D3F1"/>
<path d="M294.551 135.836C288.199 132.098 280.027 134.215 276.289 140.568L254.349 177.867C250.611 184.219 252.729 192.391 259.081 196.129C265.433 199.867 273.605 197.749 277.343 191.397L299.283 154.088C303.021 147.745 300.903 139.564 294.551 135.836Z" stroke="#2C2C2C" stroke-width="0.490363" stroke-miterlimit="10"/>
<path d="M641.833 168.96C623.472 158.154 599.832 164.287 589.026 182.649L525.582 290.5C514.786 308.861 520.909 332.501 539.27 343.307C557.632 354.113 581.272 347.98 592.078 329.618L655.522 221.767C666.318 203.406 660.195 179.766 641.833 168.96Z" fill="url(#paint1_linear_121_995)"/>
<path d="M237.468 728.626C207.833 711.189 169.669 721.081 152.232 750.725L49.8287 924.804C32.392 954.439 42.2834 992.603 71.9279 1010.04C101.562 1027.48 139.726 1017.58 157.163 987.94L259.567 813.851C276.994 784.217 267.102 746.053 237.468 728.626Z" fill="url(#paint2_linear_121_995)"/>
<path d="M279.111 788.173C265.869 780.389 248.82 784.803 241.036 798.045L195.287 875.804C187.503 889.046 191.917 906.095 205.159 913.879C218.4 921.663 235.449 917.249 243.233 904.007L288.982 826.248C296.766 813.006 292.343 795.957 279.111 788.173Z" stroke="#2C2C2C" stroke-width="0.490363" stroke-miterlimit="10"/>
<path d="M526.336 306.972C539.085 306.972 549.42 296.638 549.42 283.889C549.42 271.141 539.085 260.806 526.336 260.806C513.588 260.806 503.253 271.141 503.253 283.889C503.253 296.638 513.588 306.972 526.336 306.972Z" fill="#BDD7FE"/>
<path d="M317.313 832.073C326.328 823.058 326.328 808.443 317.313 799.428C308.299 790.414 293.683 790.414 284.669 799.428C275.654 808.443 275.654 823.058 284.669 832.073C293.683 841.087 308.299 841.087 317.313 832.073Z" fill="#D4BDFE"/>
<defs>
<linearGradient id="paint0_linear_121_995" x1="171.249" y1="0" x2="171.249" y2="281.059" gradientUnits="userSpaceOnUse">
<stop stop-color="#5BBBFF"/>
<stop offset="1" stop-color="#005592"/>
</linearGradient>
<linearGradient id="paint1_linear_121_995" x1="590.552" y1="163.626" x2="590.552" y2="348.641" gradientUnits="userSpaceOnUse">
<stop stop-color="#5BBBFF"/>
<stop offset="1" stop-color="#005592"/>
</linearGradient>
<linearGradient id="paint2_linear_121_995" x1="154.694" y1="720.018" x2="154.694" y2="1018.65" gradientUnits="userSpaceOnUse">
<stop stop-color="#5BBBFF"/>
<stop offset="1" stop-color="#005592"/>
</linearGradient>
</defs>
</svg>
