<svg width="27" height="27" viewBox="0 0 27 27" fill="none" xmlns="http://www.w3.org/2000/svg">
<g filter="url(#filter0_d_125_14795)">
<rect x="5.89465" y="2.17639" width="14.7025" height="14.7025" rx="7.35126" fill="url(#paint0_radial_125_14795)"/>
</g>
<path d="M12.0853 9.52762C12.0853 8.88659 12.6048 8.3668 13.2458 8.3668C13.8869 8.3668 14.4067 8.88659 14.4067 9.52762C14.4067 10.1686 13.8869 10.6884 13.2458 10.6884C12.6048 10.6884 12.0853 10.1686 12.0853 9.52762ZM11.4578 9.52762C11.4578 10.5152 12.2583 11.3157 13.2458 11.3157C14.2334 11.3157 15.0339 10.5152 15.0339 9.52762C15.0339 8.54007 14.2334 7.73956 13.2458 7.73956C12.2583 7.73956 11.4578 8.54002 11.4578 9.52762H11.4578ZM14.6869 7.66866C14.6868 7.75131 14.7113 7.83211 14.7572 7.90084C14.8031 7.96958 14.8683 8.02316 14.9447 8.05482C15.021 8.08648 15.105 8.09479 15.1861 8.07869C15.2671 8.0626 15.3416 8.02284 15.4001 7.96442C15.4585 7.90601 15.4984 7.83157 15.5145 7.75052C15.5307 7.66946 15.5224 7.58544 15.4908 7.50908C15.4592 7.43271 15.4057 7.36743 15.337 7.32148C15.2683 7.27554 15.1875 7.251 15.1049 7.25097H15.1047C14.9939 7.25102 14.8877 7.29504 14.8094 7.37336C14.731 7.45167 14.687 7.55788 14.6869 7.66866ZM11.839 12.3621C11.4996 12.3466 11.315 12.29 11.1924 12.2423C11.0298 12.179 10.9138 12.1036 10.7919 11.9818C10.6699 11.86 10.5944 11.7441 10.5314 11.5815C10.4836 11.459 10.427 11.2744 10.4116 10.9349C10.3947 10.5678 10.3914 10.4576 10.3914 9.52767C10.3914 8.59776 10.395 8.48781 10.4116 8.12045C10.4271 7.78096 10.484 7.59674 10.5314 7.4738C10.5947 7.31123 10.6701 7.19523 10.7919 7.07327C10.9137 6.95131 11.0295 6.87581 11.1924 6.8128C11.315 6.765 11.4996 6.70845 11.839 6.69301C12.2061 6.67613 12.3164 6.67276 13.2458 6.67276C14.1753 6.67276 14.2857 6.67636 14.6531 6.69307C14.9926 6.70853 15.1768 6.7655 15.2997 6.81286C15.4623 6.87587 15.5783 6.95153 15.7003 7.07332C15.8222 7.19512 15.8974 7.31128 15.9607 7.47386C16.0085 7.59643 16.0651 7.78101 16.0805 8.12051C16.0974 8.48787 16.1008 8.59782 16.1008 9.52773C16.1008 10.4576 16.0974 10.5676 16.0805 10.9349C16.065 11.2744 16.0082 11.459 15.9607 11.5816C15.8974 11.7442 15.822 11.8602 15.7003 11.9819C15.5785 12.1035 15.4623 12.179 15.2997 12.2423C15.1771 12.2901 14.9926 12.3467 14.6531 12.3621C14.286 12.379 14.1758 12.3824 13.2458 12.3824C12.3159 12.3824 12.206 12.379 11.839 12.3621V12.3621ZM11.8102 6.06653C11.4395 6.08341 11.1862 6.14219 10.965 6.22827C10.736 6.31716 10.542 6.43642 10.3481 6.62992C10.1543 6.82341 10.0354 7.01752 9.9465 7.24676C9.86042 7.46812 9.80164 7.72129 9.78476 8.09198C9.7676 8.46327 9.76367 8.58197 9.76367 9.52762C9.76367 10.4733 9.7676 10.592 9.78476 10.9632C9.80164 11.334 9.86042 11.5871 9.9465 11.8085C10.0354 12.0374 10.1544 12.2319 10.3481 12.4253C10.5419 12.6187 10.7358 12.7378 10.965 12.827C11.1866 12.913 11.4395 12.9718 11.8102 12.9887C12.1817 13.0056 12.3002 13.0098 13.2458 13.0098C14.1915 13.0098 14.3102 13.0059 14.6815 12.9887C15.0522 12.9718 15.3053 12.913 15.5267 12.827C15.7557 12.7378 15.9497 12.6188 16.1435 12.4253C16.3374 12.2318 16.4561 12.0374 16.5452 11.8085C16.6313 11.5871 16.6903 11.3339 16.7069 10.9632C16.7238 10.5917 16.7277 10.4733 16.7277 9.52762C16.7277 8.58197 16.7238 8.46327 16.7069 8.09198C16.6901 7.72126 16.6313 7.46798 16.5452 7.24676C16.4561 7.0178 16.337 6.82372 16.1435 6.62992C15.95 6.43611 15.7557 6.31716 15.527 6.22827C15.3053 6.14219 15.0522 6.08313 14.6818 6.06653C14.3104 6.04956 14.1918 6.04544 13.2463 6.04544C12.3008 6.04544 12.1818 6.04937 11.8104 6.06653" fill="white"/>
<defs>
<filter id="filter0_d_125_14795" x="0.459999" y="0.694213" width="25.5718" height="25.5718" filterUnits="userSpaceOnUse" color-interpolation-filters="sRGB">
<feFlood flood-opacity="0" result="BackgroundImageFix"/>
<feColorMatrix in="SourceAlpha" type="matrix" values="0 0 0 0 0 0 0 0 0 0 0 0 0 0 0 0 0 0 127 0" result="hardAlpha"/>
<feOffset dy="3.95248"/>
<feGaussianBlur stdDeviation="2.71733"/>
<feColorMatrix type="matrix" values="0 0 0 0 0.54902 0 0 0 0 0.227451 0 0 0 0 0.666667 0 0 0 0.15 0"/>
<feBlend mode="normal" in2="BackgroundImageFix" result="effect1_dropShadow_125_14795"/>
<feBlend mode="normal" in="SourceGraphic" in2="effect1_dropShadow_125_14795" result="shape"/>
</filter>
<radialGradient id="paint0_radial_125_14795" cx="0" cy="0" r="1" gradientUnits="userSpaceOnUse" gradientTransform="translate(6.84619 16.5568) scale(18.6667)">
<stop offset="0.09" stop-color="#FF881B"/>
<stop offset="0.78" stop-color="#EE2584"/>
</radialGradient>
</defs>
</svg>
