<svg width="13" height="13" viewBox="0 0 13 13" fill="none" xmlns="http://www.w3.org/2000/svg">
<path d="M4.20492 6.39614C4.20492 5.23512 5.14586 4.29368 6.30688 4.29368C7.4679 4.29368 8.40934 5.23512 8.40934 6.39614C8.40934 7.55716 7.4679 8.4986 6.30688 8.4986C5.14586 8.4986 4.20492 7.55716 4.20492 6.39614ZM3.06837 6.39614C3.06837 8.18477 4.51825 9.63464 6.30688 9.63464C8.09551 9.63464 9.54538 8.18477 9.54538 6.39614C9.54538 4.60751 8.09551 3.15763 6.30688 3.15763C4.51825 3.15763 3.06837 4.60741 3.06837 6.39614ZM8.91681 3.02923C8.91675 3.17891 8.96108 3.32525 9.04419 3.44975C9.1273 3.57424 9.24547 3.67129 9.38373 3.72863C9.522 3.78597 9.67417 3.80101 9.82099 3.77187C9.96781 3.74273 10.1027 3.6707 10.2086 3.5649C10.3145 3.4591 10.3866 3.32427 10.4159 3.17747C10.4451 3.03068 10.4302 2.8785 10.373 2.74018C10.3157 2.60187 10.2188 2.48363 10.0944 2.40042C9.96993 2.31721 9.82363 2.27276 9.67394 2.2727C9.4733 2.2728 9.28059 2.35252 9.13869 2.49437C8.99679 2.63622 8.91699 2.82859 8.91681 3.02923ZM3.7589 11.5298C3.144 11.5018 2.80979 11.3994 2.58769 11.3129C2.29323 11.1982 2.08314 11.0617 1.86224 10.8411C1.64135 10.6205 1.50462 10.4106 1.39049 10.1162C1.30391 9.89418 1.20149 9.55987 1.17353 8.94497C1.14296 8.28018 1.13685 8.08048 1.13685 6.39624C1.13685 4.712 1.14346 4.51286 1.17353 3.84751C1.20154 3.23261 1.30472 2.89895 1.39049 2.67629C1.50512 2.38184 1.64165 2.17174 1.86224 1.95085C2.08283 1.72996 2.29273 1.59323 2.58769 1.4791C2.80969 1.39252 3.144 1.29009 3.7589 1.26214C4.42369 1.23156 4.62339 1.22546 6.30688 1.22546C7.99036 1.22546 8.19026 1.23197 8.85561 1.26224C9.4705 1.29024 9.80416 1.39342 10.0268 1.4792C10.3213 1.59333 10.5314 1.73036 10.7523 1.95095C10.9732 2.17154 11.1094 2.38194 11.224 2.67639C11.3106 2.8984 11.413 3.23271 11.441 3.84761C11.4715 4.51296 11.4777 4.7121 11.4777 6.39634C11.4777 8.08058 11.4715 8.27972 11.441 8.94507C11.413 9.55997 11.31 9.89418 11.224 10.1163C11.1094 10.4107 10.9729 10.6208 10.7523 10.8412C10.5317 11.0616 10.3213 11.1983 10.0268 11.313C9.80482 11.3996 9.4705 11.502 8.85561 11.5299C8.19081 11.5605 7.99111 11.5666 6.30688 11.5666C4.62264 11.5666 4.42349 11.5604 3.7589 11.5298ZM3.70668 0.127458C3.03527 0.158034 2.57648 0.264494 2.17582 0.4204C1.76113 0.581402 1.40961 0.7974 1.0586 1.14786C0.707581 1.49832 0.492138 1.84989 0.331136 2.26509C0.17523 2.666 0.0687702 3.12454 0.0381945 3.79594C0.00711419 4.4684 0 4.68339 0 6.39614C0 8.10888 0.00711419 8.32387 0.0381945 8.99634C0.0687702 9.66779 0.17523 10.1263 0.331136 10.5272C0.492138 10.9419 0.707631 11.2941 1.0586 11.6444C1.40956 11.9947 1.76063 12.2104 2.17582 12.3719C2.57724 12.5278 3.03527 12.6342 3.70668 12.6648C4.37949 12.6954 4.59413 12.703 6.30688 12.703C8.01962 12.703 8.23461 12.6959 8.90707 12.6648C9.57853 12.6342 10.037 12.5278 10.4379 12.3719C10.8526 12.2104 11.2041 11.9949 11.5552 11.6444C11.9062 11.294 12.1212 10.9419 12.2826 10.5272C12.4385 10.1263 12.5455 9.66774 12.5756 8.99634C12.6061 8.32337 12.6132 8.10888 12.6132 6.39614C12.6132 4.68339 12.6061 4.4684 12.5756 3.79594C12.545 3.12449 12.4385 2.66575 12.2826 2.26509C12.1212 1.8504 11.9056 1.49888 11.5552 1.14786C11.2047 0.796845 10.8526 0.581402 10.4384 0.4204C10.037 0.264494 9.57848 0.15753 8.90758 0.127458C8.23501 0.0967313 8.02013 0.0892639 6.30763 0.0892639C4.59514 0.0892639 4.37949 0.0963781 3.70668 0.127458Z" fill="#F9F9F9"/>
</svg>
