<svg width="40" height="40" viewBox="0 0 40 40" fill="none" xmlns="http://www.w3.org/2000/svg">
<g filter="url(#filter0_d_15_788)">
<rect x="9.09326" y="3" width="22.2966" height="22.2966" rx="11.1483" fill="url(#paint0_radial_15_788)"/>
</g>
<path d="M18.4815 14.1482C18.4815 13.1761 19.2693 12.3878 20.2415 12.3878C21.2136 12.3878 22.0019 13.1761 22.0019 14.1482C22.0019 15.1204 21.2136 15.9086 20.2415 15.9086C19.2693 15.9086 18.4815 15.1204 18.4815 14.1482ZM17.5299 14.1482C17.5299 15.6459 18.7438 16.8599 20.2415 16.8599C21.7391 16.8599 22.9531 15.6459 22.9531 14.1482C22.9531 12.6506 21.7391 11.4366 20.2415 11.4366C18.7438 11.4366 17.5299 12.6505 17.5299 14.1482H17.5299ZM22.4268 11.3291C22.4267 11.4544 22.4638 11.577 22.5334 11.6812C22.603 11.7855 22.702 11.8667 22.8177 11.9147C22.9335 11.9627 23.0609 11.9753 23.1839 11.9509C23.3068 11.9265 23.4197 11.8662 23.5084 11.7776C23.597 11.689 23.6574 11.5762 23.6819 11.4532C23.7064 11.3303 23.6939 11.2029 23.646 11.0871C23.5981 10.9713 23.5169 10.8723 23.4127 10.8026C23.3086 10.7329 23.1861 10.6957 23.0607 10.6957H23.0605C22.8925 10.6958 22.7314 10.7625 22.6126 10.8813C22.4937 11 22.4269 11.1611 22.4268 11.3291ZM18.108 18.4467C17.5932 18.4233 17.3133 18.3375 17.1274 18.2651C16.8808 18.1691 16.7049 18.0548 16.52 17.8701C16.335 17.6854 16.2205 17.5096 16.125 17.2631C16.0525 17.0772 15.9667 16.7973 15.9433 16.2824C15.9177 15.7258 15.9126 15.5586 15.9126 14.1483C15.9126 12.7381 15.9181 12.5714 15.9433 12.0143C15.9667 11.4994 16.0531 11.22 16.125 11.0336C16.2209 10.7871 16.3353 10.6111 16.52 10.4262C16.7047 10.2412 16.8804 10.1267 17.1274 10.0312C17.3133 9.95869 17.5932 9.87293 18.108 9.84953C18.6647 9.82393 18.8319 9.81882 20.2415 9.81882C21.6511 9.81882 21.8184 9.82427 22.3755 9.84961C22.8904 9.87306 23.1698 9.95945 23.3562 10.0313C23.6027 10.1268 23.7787 10.2416 23.9636 10.4263C24.1486 10.611 24.2626 10.7871 24.3586 11.0337C24.4311 11.2196 24.5169 11.4995 24.5403 12.0143C24.5659 12.5714 24.571 12.7382 24.571 14.1484C24.571 15.5586 24.5659 15.7254 24.5403 16.2825C24.5168 16.7973 24.4306 17.0772 24.3586 17.2631C24.2626 17.5097 24.1483 17.6856 23.9636 17.8701C23.7789 18.0547 23.6027 18.1692 23.3562 18.2651C23.1703 18.3376 22.8904 18.4234 22.3755 18.4468C21.8189 18.4724 21.6517 18.4775 20.2415 18.4775C18.8312 18.4775 18.6645 18.4724 18.108 18.4468V18.4467ZM18.0643 8.89945C17.5021 8.92506 17.118 9.01419 16.7825 9.14474C16.4353 9.27954 16.141 9.4604 15.8471 9.75384C15.5532 10.0473 15.3728 10.3417 15.238 10.6893C15.1074 11.025 15.0183 11.4089 14.9927 11.9711C14.9667 12.5341 14.9607 12.7142 14.9607 14.1482C14.9607 15.5823 14.9667 15.7623 14.9927 16.3254C15.0183 16.8876 15.1074 17.2715 15.238 17.6072C15.3728 17.9544 15.5532 18.2493 15.8471 18.5427C16.1409 18.836 16.4349 19.0166 16.7825 19.1518C17.1186 19.2823 17.5021 19.3714 18.0643 19.397C18.6277 19.4226 18.8074 19.429 20.2415 19.429C21.6756 19.429 21.8556 19.4231 22.4186 19.397C22.9808 19.3714 23.3647 19.2823 23.7004 19.1518C24.0476 19.0166 24.342 18.8361 24.6359 18.5427C24.9298 18.2492 25.1098 17.9544 25.245 17.6072C25.3755 17.2715 25.4651 16.8876 25.4903 16.3254C25.5159 15.7619 25.5218 15.5823 25.5218 14.1482C25.5218 12.7142 25.5159 12.5341 25.4903 11.9711C25.4647 11.4089 25.3755 11.0248 25.245 10.6893C25.1098 10.3421 24.9293 10.0477 24.6359 9.75384C24.3424 9.45993 24.0476 9.27954 23.7008 9.14474C23.3647 9.01419 22.9808 8.92463 22.419 8.89945C21.8559 8.87373 21.676 8.86747 20.2421 8.86747C18.8082 8.86747 18.6279 8.87343 18.0645 8.89945" fill="black"/>
<defs>
<filter id="filter0_d_15_788" x="0.851522" y="0.752253" width="38.7801" height="38.7801" filterUnits="userSpaceOnUse" color-interpolation-filters="sRGB">
<feFlood flood-opacity="0" result="BackgroundImageFix"/>
<feColorMatrix in="SourceAlpha" type="matrix" values="0 0 0 0 0 0 0 0 0 0 0 0 0 0 0 0 0 0 127 0" result="hardAlpha"/>
<feOffset dy="5.99399"/>
<feGaussianBlur stdDeviation="4.12087"/>
<feColorMatrix type="matrix" values="0 0 0 0 0.54902 0 0 0 0 0.227451 0 0 0 0 0.666667 0 0 0 0.15 0"/>
<feBlend mode="normal" in2="BackgroundImageFix" result="effect1_dropShadow_15_788"/>
<feBlend mode="normal" in="SourceGraphic" in2="effect1_dropShadow_15_788" result="shape"/>
</filter>
<radialGradient id="paint0_radial_15_788" cx="0" cy="0" r="1" gradientUnits="userSpaceOnUse" gradientTransform="translate(10.5363 24.8081) scale(28.3084)">
<stop offset="0.09" stop-color="#FF881B"/>
<stop offset="0.78" stop-color="#EE2584"/>
</radialGradient>
</defs>
</svg>
