<svg width="23" height="24" viewBox="0 0 23 24" fill="none" xmlns="http://www.w3.org/2000/svg">
<circle cx="11.4907" cy="12.3348" r="11.4907" fill="#075FE4"/>
<path d="M5.00008 15.2466L6.50919 14.3332C6.80038 14.8494 7.06522 15.2862 7.70053 15.2862C8.30949 15.2862 8.69351 15.048 8.69351 14.1215V7.82017H10.5467V14.1477C10.5467 16.0671 9.42156 16.9409 7.77995 16.9409C6.29742 16.9409 5.43686 16.1731 5 15.2464L5.00008 15.2466ZM11.5533 15.048L13.0623 14.1743C13.4596 14.823 13.9759 15.2996 14.8892 15.2996C15.6571 15.2996 16.1468 14.9156 16.1468 14.3861C16.1468 13.7507 15.6437 13.5256 14.7965 13.1551L14.3333 12.9563C12.9962 12.3873 12.1093 11.6724 12.1093 10.1633C12.1093 8.77325 13.1683 7.71417 14.8231 7.71417C16.0013 7.71417 16.8485 8.12461 17.4574 9.19686L16.0144 10.1236C15.6966 9.55438 15.3525 9.32936 14.823 9.32936C14.2802 9.32936 13.936 9.67355 13.936 10.1236C13.936 10.6795 14.2802 10.9047 15.0745 11.2489L15.5377 11.4474C17.1131 12.1226 18 12.8109 18 14.3597C18 16.0278 16.6895 16.9411 14.9289 16.9411C13.208 16.9411 12.096 16.1204 11.5533 15.048" fill="white"/>
</svg>
