<svg width="12" height="12" viewBox="0 0 12 12" fill="none" xmlns="http://www.w3.org/2000/svg">
<path d="M0 2.21369C0 1.84195 0.13011 1.53527 0.390318 1.29365C0.650526 1.05202 0.988809 0.931213 1.40514 0.931213C1.81405 0.931213 2.14489 1.05016 2.39767 1.28808C2.65787 1.53342 2.78798 1.8531 2.78798 2.24714C2.78798 2.604 2.6616 2.90138 2.40882 3.1393C2.14861 3.38464 1.80661 3.50731 1.38284 3.50731H1.37169C0.96278 3.50731 0.631947 3.38464 0.379166 3.1393C0.126385 2.89395 0 2.58541 0 2.21369ZM0.144975 11.9716V4.52214H2.6207V11.9716H0.144975ZM3.99239 11.9716H6.46812V7.81196C6.46812 7.55174 6.49786 7.351 6.55734 7.20975C6.66142 6.95697 6.81941 6.74322 7.03129 6.56852C7.24318 6.3938 7.50897 6.30645 7.82866 6.30645C8.66134 6.30645 9.07767 6.86776 9.07767 7.99039V11.9716H11.5534V7.70044C11.5534 6.60011 11.2932 5.76558 10.7728 5.19683C10.2523 4.62808 9.56465 4.3437 8.70966 4.3437C7.75059 4.3437 7.00341 4.75633 6.46812 5.58157V5.60387H6.45697L6.46812 5.58157V4.52214H3.99239C4.00726 4.76004 4.0147 5.49978 4.0147 6.74137C4.0147 7.98295 4.00726 9.72636 3.99239 11.9716Z" fill="white"/>
</svg>
