<svg width="34" height="34" viewBox="0 0 34 34" fill="none" xmlns="http://www.w3.org/2000/svg">
<g filter="url(#filter0_d_15_782)">
<rect x="5.68652" y="3" width="22.2966" height="22.2966" rx="11.1483" fill="#018AD2"/>
</g>
<path d="M12.057 10.4771C12.057 10.1563 12.1697 9.8917 12.3949 9.68322C12.6202 9.47472 12.9131 9.37048 13.2736 9.37048C13.6276 9.37048 13.914 9.47311 14.1329 9.6784C14.3582 9.8901 14.4708 10.1659 14.4708 10.506C14.4708 10.8139 14.3614 11.0705 14.1425 11.2758C13.9172 11.4875 13.6211 11.5933 13.2542 11.5933H13.2446C12.8906 11.5933 12.6041 11.4875 12.3853 11.2758C12.1664 11.0641 12.057 10.7978 12.057 10.4771ZM12.1825 18.8969V12.469H14.326V18.8969H12.1825ZM15.5136 18.8969H17.657V15.3077C17.657 15.0831 17.6828 14.9099 17.7342 14.788C17.8244 14.5699 17.9611 14.3855 18.1446 14.2347C18.328 14.084 18.5581 14.0086 18.8349 14.0086C19.5559 14.0086 19.9163 14.4929 19.9163 15.4616V18.8969H22.0598V15.2114C22.0598 14.262 21.8345 13.5419 21.3839 13.0511C20.9333 12.5604 20.3379 12.315 19.5977 12.315C18.7673 12.315 18.1204 12.671 17.657 13.3831V13.4024H17.6473L17.657 13.3831V12.469H15.5136C15.5264 12.6743 15.5329 13.3126 15.5329 14.3839C15.5329 15.4552 15.5264 16.9595 15.5136 18.8969Z" fill="black"/>
<defs>
<filter id="filter0_d_15_782" x="0.37781" y="0.876514" width="32.9141" height="32.914" filterUnits="userSpaceOnUse" color-interpolation-filters="sRGB">
<feFlood flood-opacity="0" result="BackgroundImageFix"/>
<feColorMatrix in="SourceAlpha" type="matrix" values="0 0 0 0 0 0 0 0 0 0 0 0 0 0 0 0 0 0 127 0" result="hardAlpha"/>
<feOffset dy="3.18523"/>
<feGaussianBlur stdDeviation="2.65436"/>
<feColorMatrix type="matrix" values="0 0 0 0 0.00392157 0 0 0 0 0.541176 0 0 0 0 0.823529 0 0 0 0.25 0"/>
<feBlend mode="normal" in2="BackgroundImageFix" result="effect1_dropShadow_15_782"/>
<feBlend mode="normal" in="SourceGraphic" in2="effect1_dropShadow_15_782" result="shape"/>
</filter>
</defs>
</svg>
