<svg width="7" height="12" viewBox="0 0 7 12" fill="none" xmlns="http://www.w3.org/2000/svg">
<path d="M5.63666 10.757H1.62222C1.17876 10.757 0.819336 10.3976 0.819336 9.95413V1.65764C0.819336 1.21418 1.17876 0.854752 1.62222 0.854752H5.63666C6.08012 0.854752 6.43954 1.21418 6.43954 1.65764V9.95413C6.43954 10.3976 6.08012 10.757 5.63666 10.757Z" stroke="white" stroke-width="0.631757" stroke-linecap="round" stroke-linejoin="round"/>
<path d="M4.29859 9.15109H2.96045" stroke="white" stroke-width="0.631757" stroke-linecap="round" stroke-linejoin="round"/>
<path d="M3.62948 2.68621C3.79173 2.68621 3.92327 2.55467 3.92327 2.39242C3.92327 2.23017 3.79173 2.09863 3.62948 2.09863C3.46723 2.09863 3.33569 2.23017 3.33569 2.39242C3.33569 2.55467 3.46723 2.68621 3.62948 2.68621Z" fill="white"/>
</svg>
