<svg width="23" height="24" viewBox="0 0 23 24" fill="none" xmlns="http://www.w3.org/2000/svg">
<circle cx="11.4907" cy="12.3348" r="11.4907" fill="#075FE4"/>
<path d="M11.5 11.05C11.3244 11.05 11.1506 11.0846 10.9884 11.1517C10.8262 11.2189 10.6788 11.3174 10.5547 11.4415C10.4305 11.5657 10.3321 11.7131 10.2649 11.8753C10.1977 12.0374 10.1631 12.2113 10.1631 12.3869C10.1631 12.5624 10.1977 12.7363 10.2649 12.8985C10.3321 13.0606 10.4305 13.208 10.5547 13.3322C10.6788 13.4563 10.8262 13.5548 10.9884 13.622C11.1506 13.6891 11.3244 13.7237 11.5 13.7237C11.6756 13.7237 11.8494 13.6891 12.0116 13.622C12.1738 13.5548 12.3212 13.4563 12.4453 13.3322C12.5695 13.208 12.6679 13.0606 12.7351 12.8985C12.8023 12.7363 12.8369 12.5624 12.8369 12.3869C12.8369 12.2113 12.8023 12.0374 12.7351 11.8753C12.6679 11.7131 12.5695 11.5657 12.4453 11.4415C12.3212 11.3174 12.1738 11.2189 12.0116 11.1517C11.8494 11.0846 11.6756 11.05 11.5 11.05ZM7.755 15.0462L7.46 14.9712C5.26125 14.4156 4 13.4725 4 12.3844C4 11.2962 5.26125 10.3531 7.46 9.79748L7.755 9.7231L7.83812 10.0156C8.06086 10.7829 8.34577 11.5308 8.69 12.2519L8.75313 12.385L8.69 12.5181C8.34519 13.2389 8.06027 13.9868 7.83812 14.7544L7.755 15.0462ZM7.32312 10.4806C5.65187 10.95 4.62625 11.6681 4.62625 12.3844C4.62625 13.1 5.65187 13.8181 7.32312 14.2881C7.52752 13.6381 7.77429 13.0021 8.06187 12.3844C7.77397 11.7667 7.52718 11.1308 7.32312 10.4806ZM15.245 15.0462L15.1619 14.7531C14.9394 13.9858 14.6542 13.2381 14.3094 12.5175L14.2462 12.3844L14.3094 12.2512C14.6541 11.5303 14.9392 10.7824 15.1619 10.015L15.245 9.72248L15.5406 9.79685C17.7388 10.3525 19 11.2956 19 12.3844C19 13.4731 17.7388 14.4156 15.5406 14.9712L15.245 15.0462ZM14.9381 12.3844C15.2381 13.0337 15.4862 13.6719 15.6769 14.2881C17.3488 13.8181 18.3737 13.1 18.3737 12.3844C18.3737 11.6681 17.3481 10.9506 15.6769 10.4806C15.4728 11.1307 15.226 11.7667 14.9381 12.3844ZM7.31875 10.4775L7.23563 10.1856C6.6175 8.00685 6.805 6.4456 7.75 5.9006C8.67688 5.3656 10.165 5.99748 11.7244 7.5981L11.9369 7.81623L11.7244 8.03435C11.1703 8.61036 10.664 9.23053 10.2106 9.88873L10.1263 10.0094L9.97938 10.0219C9.18182 10.0847 8.39068 10.2122 7.61375 10.4031L7.31875 10.4775ZM8.50375 6.33373C8.33625 6.33373 8.18813 6.36998 8.06313 6.44185C7.44187 6.79998 7.33187 8.04498 7.76 9.72498C8.42602 9.57681 9.101 9.47221 9.78062 9.41185C10.1728 8.85428 10.6012 8.32313 11.0631 7.82185C10.0881 6.87248 9.165 6.33373 8.50375 6.33373ZM14.4969 19.06C14.4963 19.06 14.4963 19.06 14.4969 19.06C13.6062 19.06 12.4625 18.3894 11.2756 17.1706L11.0631 16.9525L11.2756 16.7344C11.8296 16.1582 12.3356 15.5378 12.7887 14.8794L12.8731 14.7587L13.0194 14.7462C13.8173 14.6837 14.6089 14.5564 15.3863 14.3656L15.6813 14.2912L15.765 14.5837C16.3819 16.7612 16.195 18.3231 15.25 18.8675C15.0205 18.9973 14.7605 19.0637 14.4969 19.06ZM11.9369 16.9469C12.9119 17.8962 13.835 18.435 14.4963 18.435H14.4969C14.6637 18.435 14.8125 18.3987 14.9369 18.3269C15.5581 17.9687 15.6687 16.7231 15.24 15.0431C14.5738 15.1915 13.8986 15.2961 13.2188 15.3562C12.8271 15.9142 12.3989 16.4456 11.9369 16.9469ZM15.6813 10.4775L15.3863 10.4031C14.609 10.2117 13.8174 10.0842 13.0194 10.0219L12.8731 10.0094L12.7887 9.88873C12.3359 9.23032 11.8298 8.61012 11.2756 8.03435L11.0631 7.81623L11.2756 7.5981C12.8344 5.9981 14.3219 5.36623 15.25 5.9006C16.195 6.4456 16.3825 8.00685 15.765 10.185L15.6813 10.4775ZM13.2188 9.41185C13.9325 9.47685 14.6106 9.58248 15.24 9.72498C15.6687 8.04498 15.5581 6.79998 14.9369 6.44185C14.3194 6.08498 13.1588 6.63185 11.9369 7.82185C12.3986 8.32315 12.8268 8.8543 13.2188 9.41185ZM8.50375 19.06C8.23987 19.0638 7.97973 18.9974 7.75 18.8675C6.805 18.3231 6.6175 16.7619 7.23563 14.5837L7.31813 14.2912L7.61313 14.3656C8.335 14.5475 9.13125 14.6756 9.97875 14.7462L10.1256 14.7587L10.2094 14.8794C10.6628 15.5377 11.1691 16.1581 11.7231 16.7344L11.9356 16.9525L11.7231 17.1706C10.5369 18.3894 9.39313 19.06 8.50375 19.06ZM7.76 15.0431C7.33125 16.7231 7.44187 17.9687 8.06313 18.3269C8.68 18.6787 9.84 18.1362 11.0631 16.9469C10.6014 16.4452 10.173 15.9139 9.78062 15.3562C9.10096 15.2961 8.42597 15.1915 7.76 15.0431ZM11.5 15.4356C10.9856 15.4356 10.4569 15.4131 9.9275 15.3694L9.78062 15.3569L9.69625 15.2362C9.39682 14.806 9.11533 14.3635 8.8525 13.91C8.59045 13.4561 8.34733 12.9915 8.12375 12.5175L8.06125 12.3844L8.12375 12.2512C8.34729 11.7772 8.59042 11.3126 8.8525 10.8587C9.11125 10.4112 9.39563 9.96498 9.69625 9.53248L9.78062 9.41185L9.9275 9.39935C10.9742 9.3106 12.0265 9.3106 13.0731 9.39935L13.2194 9.41185L13.3031 9.53248C13.9026 10.3931 14.4288 11.3026 14.8763 12.2512L14.9394 12.3844L14.8763 12.5175C14.4299 13.4667 13.9036 14.3762 13.3031 15.2362L13.2194 15.3569L13.0731 15.3694C12.5437 15.4131 12.0144 15.4356 11.5 15.4356ZM10.1269 14.7581C11.0519 14.8275 11.9481 14.8275 12.8737 14.7581C13.3905 14.0026 13.8493 13.2091 14.2462 12.3844C13.85 11.5591 13.391 10.7655 12.8731 10.0106C11.959 9.94123 11.041 9.94123 10.1269 10.0106C9.6088 10.7654 9.14973 11.559 8.75375 12.3844C9.1511 13.209 9.61011 14.0025 10.1269 14.7581Z" fill="white"/>
</svg>
