<svg width="100" height="58" viewBox="0 0 100 58" fill="none" xmlns="http://www.w3.org/2000/svg">
<path d="M96.9938 24.2449C96.8038 24.2247 96.6138 24.2045 96.326 24.1753C96.9906 22.2071 99.1793 22.9362 99.1931 23.8719C98.9225 24.8358 54.7418 47.2865 42.0119 41.6273C41.9806 41.614 41.9359 41.6322 41.7957 41.6471C40.6676 43.2931 34.0352 57.7323 33.9939 57.7752C33.557 57.7711 33.7828 57.8809 33.1343 57.4615C32.8796 56.4514 35.1008 51.6102 40.6308 37.0703C40.987 36.8403 41.2146 37.0764 41.4333 37.2901C41.611 37.9049 41.1714 38.5273 41.539 39.0971C42.0417 38.892 45.4257 31.8663 45.5672 31.4567C45.314 31.3678 45.5721 31.3798 42.0628 34.7954C41.715 35.136 41.3192 35.4376 40.9099 35.7056C39.7273 36.4683 39.0551 36.3875 37.9551 35.3673C37.3177 35.5524 36.6384 35.6407 35.9698 35.2685C34.5792 36.4776 33.2324 37.8774 31.3231 37.1646C30.4021 38.6381 28.0843 45.763 27.0895 47.182C26.5346 47.1836 26.5346 47.1836 26.0856 46.7838C26.1644 45.0969 30.3884 37.7023 30.5474 34.6081C30.7484 34.4935 30.9533 34.3806 31.3129 34.1752C33.9405 28.4092 36.5322 23.5765 36.5322 23.5765C34.6852 23.7178 23.4735 26.1655 20.9375 26.7442C19.7335 29.102 20.7377 27.6173 16.9478 34.9357C16.4075 35.9803 16.5226 36.0245 15.7399 39.5328C15.6871 39.7661 15.5795 40.0087 15.816 40.2347C17.1315 38.724 18.0443 36.9215 19.22 35.3701C19.8515 35.5033 19.8515 35.5033 20.2263 35.9042C20.1501 36.3554 20.0674 36.8224 19.9779 37.3378C21.073 36.803 22.0708 33.8649 23.1147 33.4618C24.8056 33.6773 24.0913 34.5877 27.9525 32.693C28.2631 32.6575 28.5499 32.8303 28.7548 33.2939C28.0361 34.2582 26.516 34.9892 23.9341 34.414C22.9316 34.7417 21.4171 38.9297 19.5969 39.1382C19.2884 39.0165 18.9156 38.8722 18.4668 38.7003C17.4797 40.0574 17.0524 40.7269 16.0745 41.7579C15.4037 42.4681 14.2572 41.9815 14.2875 40.9528C14.2962 40.7147 14.3072 40.4823 14.3197 40.1482C13.8411 40.3402 13.1701 42.1384 12.3777 43.6898C12.06 43.8943 11.842 43.7878 11.6326 43.4107C12.3108 41.5737 13.3411 39.8536 14.241 37.9946C13.7673 38.0446 14.1665 37.7351 8.85843 44.3766C3.95662 50.507 4.08224 50.4069 2.55597 51.7072C-0.345844 54.1811 -1.43744 48.0499 7.28221 31.1955C7.44449 30.8785 7.57714 30.5442 7.72989 30.1953C6.90012 30.1267 6.08348 30.3426 3.88517 31.181C3.73312 31.0932 3.53745 30.9776 3.27861 30.8259C3.95685 30.2071 4.44063 30.1335 8.35618 29.0244C10.8639 24.6722 15.92 15.1759 21.5976 11.0253C21.8259 10.8572 22.0912 10.7327 22.3559 10.6312C23.8522 10.0435 25.0944 10.7939 25.215 12.4027C25.4709 15.8358 22.6857 21.6139 21.389 25.6805C21.8088 25.8773 36.8604 22.651 37.1821 22.5784C42.8336 13.4418 42.4786 13.8537 43.868 11.9513C44.0566 11.6919 44.3112 11.4838 44.4892 11.3036C44.849 11.2611 45.0435 11.3576 45.1735 11.715C42.8821 15.0246 40.8758 18.5761 38.7009 22.1769C39.6653 22.2655 51.2031 20.1375 51.5594 20.0377C52.5089 19.1063 60.6674 2.01833 63.7734 0.412192C64.2639 0.387932 64.6161 0.537408 64.8953 1.00001C65.5321 4.1995 54.8646 18.6695 54.6402 19.4484C54.8649 19.5717 92.855 14.2072 93.5544 15.8013C93.5544 15.8013 69.9226 17.9521 53.8311 20.4951C52.0785 22.8943 48.6159 26.646 42.2066 40.7661C45.7118 47.945 96.332 25.6843 96.9781 24.2057C97.2028 24.329 97.3033 24.2228 97.3996 23.8546C97.1936 24.0461 97.0909 24.1466 96.9938 24.2449ZM15.7764 35.1173C18.031 30.7087 19.3226 28.3185 19.512 27.176C18.1422 27.3245 10.6214 29.149 9.28036 29.6538C7.18303 33.7572 0.888235 46.6287 1.46035 51.177C6.29749 46.9069 13.6967 34.9691 15.7764 35.1173ZM39.1574 35.3523C40.7166 35.7258 49.9897 25.4762 51.0067 20.9701C49.2078 21.1829 39.2011 22.9565 38.1365 23.2346C36.334 25.9799 32.1854 34.4805 31.6382 36.5637C33.908 36.8297 36.0649 33.119 36.2848 32.8403C36.7647 32.7976 37.0677 32.9216 37.186 33.4042C36.7182 34.3215 36.578 34.4341 36.8213 34.7094C38.0451 34.3175 38.4114 33.5524 39.2066 32.5276C39.6357 32.561 39.9292 32.653 40.0525 33.0913C39.8051 33.8046 39.1431 34.407 39.1574 35.3523ZM20.024 26.1658C21.2246 23.816 25.57 12.6325 23.9235 11.0502C23.7157 11.0829 23.4933 11.0628 23.3269 11.1503C17.8365 14.0877 10.2436 27.3846 10.08 28.5751C13.4633 27.7516 16.7417 26.9579 20.024 26.1658ZM63.6647 1.78881C61.7437 3.95375 54.9575 15.4264 53.5937 18.8461C55.0574 16.9427 63.9743 4.13806 63.6647 1.78881ZM39.7359 42.9208C41.1384 40.2476 40.8676 40.9509 40.798 40.0705C40.1553 41.0624 39.9959 42.0037 39.7359 42.9208Z" fill="white"/>
</svg>
