<svg width="35" height="35" viewBox="0 0 35 35" fill="none" xmlns="http://www.w3.org/2000/svg">
<g filter="url(#filter0_d_15_791)">
<rect x="6.79663" y="3" width="22.2966" height="22.2966" rx="11.1483" fill="#1DA1F2"/>
</g>
<path d="M20.021 9.12114V9.11891H20.5998L20.8113 9.16133C20.9523 9.18888 21.0803 9.22497 21.1953 9.26962C21.3104 9.31428 21.4217 9.36638 21.5293 9.42592C21.6369 9.48546 21.7345 9.54612 21.822 9.60789C21.9089 9.66892 21.9868 9.73367 22.0558 9.80214C22.124 9.87136 22.2305 9.88922 22.3753 9.85573C22.52 9.82224 22.6758 9.77572 22.8428 9.71618C23.0097 9.65664 23.1749 9.58966 23.3381 9.51523C23.5014 9.4408 23.6008 9.39354 23.6365 9.37345C23.6713 9.35262 23.6899 9.34145 23.6921 9.33996L23.6943 9.33661L23.7055 9.33103L23.7166 9.32544L23.7277 9.31986L23.7388 9.31428L23.7411 9.31093L23.7444 9.3087L23.7478 9.30647L23.75 9.30312L23.7611 9.29977L23.7722 9.29753L23.77 9.31428L23.7667 9.33103L23.7611 9.34777L23.7555 9.36452L23.75 9.37568L23.7444 9.38685L23.7388 9.40359C23.7351 9.41475 23.7314 9.42964 23.7277 9.44825C23.724 9.46686 23.6888 9.54128 23.622 9.67152C23.5552 9.80177 23.4717 9.93388 23.3715 10.0678C23.2713 10.2018 23.1815 10.303 23.1021 10.3715C23.022 10.4407 22.9689 10.4891 22.943 10.5166C22.917 10.5449 22.8854 10.571 22.8483 10.5948L22.7927 10.6316L22.7815 10.6372L22.7704 10.6428L22.7682 10.6461L22.7648 10.6484L22.7615 10.6506L22.7593 10.6539L22.7482 10.6595L22.737 10.6651L22.7348 10.6685L22.7315 10.6707L22.7281 10.6729L22.7259 10.6763L22.7237 10.6796L22.7203 10.6819L22.717 10.6841L22.7148 10.6874H22.7704L23.0821 10.6205C23.2899 10.5758 23.4884 10.5218 23.6776 10.4586L23.9782 10.3581L24.0116 10.3469L24.0283 10.3414L24.0394 10.3358L24.0505 10.3302L24.0617 10.3246L24.0728 10.319L24.0951 10.3157L24.1173 10.3134V10.3358L24.1118 10.338L24.1062 10.3414L24.104 10.3447L24.1006 10.3469L24.0973 10.3492L24.0951 10.3525L24.0928 10.3559L24.0895 10.3581L24.0861 10.3603L24.0839 10.3637L24.0817 10.367L24.0784 10.3693L24.0728 10.3804L24.0672 10.3916L24.0639 10.3938C24.0624 10.3961 24.0153 10.4593 23.9225 10.5836C23.8298 10.7087 23.7797 10.7719 23.7722 10.7734C23.7648 10.7756 23.7544 10.7868 23.7411 10.8069C23.7285 10.8277 23.6498 10.9107 23.5051 11.0558C23.3604 11.201 23.2187 11.3301 23.0799 11.4432C22.9404 11.5571 22.8699 11.697 22.8684 11.863C22.8662 12.0282 22.8576 12.215 22.8428 12.4234C22.8279 12.6318 22.8001 12.857 22.7593 13.0988C22.7185 13.3407 22.6554 13.6142 22.5701 13.9194C22.4847 14.2245 22.3808 14.5222 22.2584 14.8125C22.1359 15.1028 22.0079 15.3632 21.8743 15.594C21.7408 15.8247 21.6183 16.0201 21.507 16.1801C21.3957 16.3401 21.2825 16.4908 21.1675 16.6322C21.0525 16.7736 20.907 16.9329 20.7312 17.11C20.5545 17.2864 20.4581 17.3832 20.4417 17.4003C20.4247 17.4167 20.3519 17.4777 20.2235 17.5834C20.0959 17.6898 19.9586 17.7962 19.8117 17.9027C19.6655 18.0084 19.5312 18.0965 19.4087 18.1672C19.2863 18.238 19.1386 18.3187 18.9657 18.4095C18.7935 18.501 18.6073 18.5859 18.4069 18.664C18.2065 18.7422 17.995 18.8148 17.7724 18.8817C17.5498 18.9487 17.3346 19.0008 17.1268 19.038C16.919 19.0752 16.6834 19.1069 16.4199 19.1329L16.0248 19.172V19.1776H15.3012V19.172L15.2066 19.1664C15.1436 19.1627 15.0916 19.159 15.0508 19.1553C15.01 19.1515 14.856 19.1311 14.5888 19.0939C14.3217 19.0566 14.112 19.0194 13.9599 18.9822C13.8078 18.945 13.5814 18.8743 13.2809 18.7701C12.9803 18.6659 12.7232 18.5606 12.5095 18.4542C12.2965 18.3485 12.1629 18.2815 12.1088 18.2532C12.0553 18.2257 11.9952 18.1914 11.9284 18.1505L11.8282 18.0891L11.826 18.0858L11.8227 18.0835L11.8193 18.0813L11.8171 18.0779L11.806 18.0724L11.7948 18.0668L11.7926 18.0634L11.7893 18.0612L11.7859 18.059L11.7837 18.0556L11.7815 18.0523L11.7781 18.05H11.7726V18.0277L11.7837 18.0299L11.7948 18.0333L11.8449 18.0389C11.8783 18.0426 11.9692 18.0482 12.1177 18.0556C12.2661 18.0631 12.4238 18.0631 12.5907 18.0556C12.7577 18.0482 12.9284 18.0314 13.1028 18.0054C13.2772 17.9793 13.4831 17.9347 13.7206 17.8714C13.9581 17.8081 14.1762 17.733 14.3751 17.6459C14.5733 17.5581 14.7142 17.4926 14.7981 17.4494C14.8812 17.407 15.0081 17.3281 15.1788 17.2127L15.4348 17.0397L15.437 17.0363L15.4404 17.0341L15.4437 17.0319L15.4459 17.0285L15.4482 17.0252L15.4515 17.023L15.4549 17.0207L15.4571 17.0174L15.4682 17.014L15.4793 17.0118L15.4816 17.0006L15.4849 16.9895L15.4883 16.9872L15.4905 16.9839L15.4014 16.9783C15.3421 16.9746 15.2845 16.9708 15.2289 16.9671C15.1732 16.9634 15.086 16.9467 14.9673 16.9169C14.8486 16.8871 14.7206 16.8425 14.5833 16.7829C14.446 16.7234 14.3124 16.6527 14.1825 16.5708C14.0527 16.4889 13.9588 16.4208 13.9009 16.3665C13.8438 16.3129 13.7696 16.237 13.6783 16.1388C13.5877 16.0398 13.5091 15.9382 13.4423 15.834C13.3755 15.7298 13.3117 15.6096 13.2508 15.4734L13.1584 15.2702L13.1529 15.2535L13.1473 15.2367L13.144 15.2256L13.1417 15.2144L13.1584 15.2166L13.1751 15.22L13.2976 15.2367C13.3792 15.2479 13.5072 15.2516 13.6816 15.2479C13.856 15.2442 13.9766 15.2367 14.0434 15.2256C14.1102 15.2144 14.151 15.207 14.1658 15.2032L14.1881 15.1977L14.2159 15.1921L14.2438 15.1865L14.246 15.1831L14.2493 15.1809L14.2527 15.1787L14.2549 15.1753L14.2326 15.1697L14.2104 15.1642L14.1881 15.1586L14.1658 15.153L14.1436 15.1474C14.1287 15.1437 14.1028 15.1363 14.0657 15.1251C14.0286 15.1139 13.9284 15.073 13.7651 15.0023C13.6019 14.9316 13.472 14.8627 13.3755 14.7958C13.2788 14.7286 13.1866 14.6551 13.0994 14.5758C13.0126 14.4954 12.9173 14.392 12.8134 14.2655C12.7095 14.1389 12.6167 13.992 12.5351 13.8245C12.4535 13.657 12.3922 13.497 12.3514 13.3444C12.3108 13.1928 12.2839 13.0377 12.2713 12.8811L12.2512 12.6467L12.2624 12.6489L12.2735 12.6523L12.2846 12.6579L12.2958 12.6634L12.3069 12.669L12.318 12.6746L12.4906 12.7528C12.6056 12.8049 12.7484 12.8495 12.9191 12.8867C13.0898 12.9239 13.1918 12.9444 13.2252 12.9481L13.2753 12.9537H13.3755L13.3733 12.9504L13.3699 12.9481L13.3666 12.9459L13.3644 12.9425L13.3622 12.9392L13.3588 12.937L13.3555 12.9347L13.3532 12.9314L13.3421 12.9258L13.331 12.9202L13.3288 12.9169L13.3254 12.9146L13.3221 12.9124L13.3198 12.9091L13.3087 12.9035L13.2976 12.8979L13.2954 12.8945C13.2931 12.893 13.2612 12.8692 13.1996 12.8231C13.1388 12.7762 13.075 12.7156 13.0082 12.6411C12.9414 12.5667 12.8746 12.4885 12.8078 12.4067C12.7409 12.3246 12.6813 12.2368 12.6297 12.1443C12.5778 12.0513 12.5228 11.933 12.465 11.7893C12.4078 11.6464 12.3644 11.5024 12.3347 11.3573C12.305 11.2121 12.2883 11.0689 12.2846 10.9275C12.2809 10.786 12.2846 10.6651 12.2958 10.5646C12.3069 10.4642 12.3292 10.3507 12.3625 10.2241C12.3959 10.0976 12.4442 9.96365 12.5073 9.82224L12.6019 9.61012L12.6074 9.59338L12.613 9.57663L12.6164 9.5744L12.6186 9.57105L12.6208 9.5677L12.6241 9.56547L12.6275 9.5677L12.6297 9.57105L12.6319 9.5744L12.6353 9.57663L12.6386 9.57886L12.6408 9.58221L12.6431 9.58556L12.6464 9.5878L12.652 9.59896L12.6575 9.61012L12.6609 9.61236L12.6631 9.61571L12.8134 9.78316C12.9136 9.8948 13.0323 10.0195 13.1696 10.1572C13.3069 10.2948 13.3829 10.3663 13.3978 10.3715C13.4126 10.3775 13.4312 10.3946 13.4534 10.4229C13.4757 10.4504 13.5499 10.5163 13.6761 10.6205C13.8022 10.7246 13.9673 10.8456 14.1714 10.9833C14.3755 11.121 14.6018 11.2568 14.8504 11.3908C15.099 11.5247 15.3662 11.6457 15.6519 11.7536C15.9376 11.8615 16.138 11.9322 16.253 11.9657C16.368 11.9992 16.5647 12.042 16.8429 12.0941C17.1212 12.1462 17.3309 12.1797 17.4719 12.1946C17.6129 12.2094 17.7093 12.218 17.7613 12.2202L17.8392 12.2225L17.837 12.2057L17.8336 12.189L17.8114 12.0494C17.7965 11.9564 17.7891 11.8262 17.7891 11.6587C17.7891 11.4912 17.8021 11.3368 17.8281 11.1954C17.8541 11.054 17.893 10.9107 17.9449 10.7656C17.9969 10.6205 18.0477 10.504 18.0975 10.4162C18.1479 10.3291 18.214 10.2297 18.2956 10.1181C18.3772 10.0064 18.483 9.89108 18.6128 9.772C18.7427 9.65291 18.8911 9.54686 19.0581 9.45383C19.2251 9.3608 19.3791 9.29009 19.52 9.24171C19.661 9.19334 19.7798 9.1617 19.8762 9.14682C19.9727 9.13194 20.021 9.12338 20.021 9.12114Z" fill="black"/>
<defs>
<filter id="filter0_d_15_791" x="0.957046" y="0.345643" width="33.9758" height="33.9758" filterUnits="userSpaceOnUse" color-interpolation-filters="sRGB">
<feFlood flood-opacity="0" result="BackgroundImageFix"/>
<feColorMatrix in="SourceAlpha" type="matrix" values="0 0 0 0 0 0 0 0 0 0 0 0 0 0 0 0 0 0 127 0" result="hardAlpha"/>
<feOffset dy="3.18523"/>
<feGaussianBlur stdDeviation="2.91979"/>
<feColorMatrix type="matrix" values="0 0 0 0 0.113725 0 0 0 0 0.631373 0 0 0 0 0.94902 0 0 0 0.25 0"/>
<feBlend mode="normal" in2="BackgroundImageFix" result="effect1_dropShadow_15_791"/>
<feBlend mode="normal" in="SourceGraphic" in2="effect1_dropShadow_15_791" result="shape"/>
</filter>
</defs>
</svg>
