<svg width="24" height="23" viewBox="0 0 24 23" fill="none" xmlns="http://www.w3.org/2000/svg">
<g filter="url(#filter0_d_125_14798)">
<rect x="4.57593" y="2.17639" width="14.7025" height="14.7025" rx="7.35126" fill="#1DA1F2"/>
</g>
<path d="M13.2962 6.21268V6.21121H13.6779L13.8174 6.23919C13.9103 6.25735 13.9947 6.28115 14.0706 6.31059C14.1464 6.34004 14.2198 6.3744 14.2908 6.41365C14.3618 6.45291 14.4261 6.49292 14.4838 6.53365C14.5411 6.57389 14.5925 6.61659 14.638 6.66174C14.683 6.70738 14.7532 6.71916 14.8486 6.69707C14.9441 6.67499 15.0468 6.64431 15.1569 6.60505C15.267 6.5658 15.3759 6.52163 15.4836 6.47255C15.5912 6.42347 15.6568 6.39231 15.6803 6.37906C15.7033 6.36532 15.7155 6.35796 15.717 6.35697L15.7184 6.35476L15.7258 6.35108L15.7331 6.3474L15.7405 6.34372L15.7478 6.34004L15.7493 6.33783L15.7515 6.33636L15.7537 6.33489L15.7551 6.33268L15.7625 6.33047L15.7698 6.329L15.7684 6.34004L15.7662 6.35108L15.7625 6.36212L15.7588 6.37317L15.7551 6.38053L15.7515 6.38789L15.7478 6.39893C15.7454 6.40629 15.7429 6.41611 15.7405 6.42838C15.738 6.44065 15.7148 6.48972 15.6707 6.57561C15.6267 6.6615 15.5716 6.7486 15.5056 6.83694C15.4395 6.92528 15.3803 6.99202 15.328 7.03718C15.2751 7.08282 15.2401 7.11472 15.223 7.13288C15.2059 7.15152 15.1851 7.1687 15.1606 7.18441L15.1239 7.2087L15.1166 7.21238L15.1092 7.21606L15.1078 7.21827L15.1055 7.21974L15.1033 7.22122L15.1019 7.22342L15.0945 7.22711L15.0872 7.23079L15.0857 7.23299L15.0835 7.23447L15.0813 7.23594L15.0799 7.23815L15.0784 7.24036L15.0762 7.24183L15.074 7.2433L15.0725 7.24551H15.1092L15.3147 7.20134C15.4518 7.17189 15.5827 7.13632 15.7074 7.0946L15.9056 7.02834L15.9276 7.02098L15.9387 7.0173L15.946 7.01362L15.9533 7.00994L15.9607 7.00626L15.968 7.00258L15.9827 7.00037L15.9974 6.9989V7.01362L15.9937 7.01509L15.99 7.0173L15.9886 7.01951L15.9864 7.02098L15.9842 7.02245L15.9827 7.02466L15.9812 7.02687L15.979 7.02834L15.9768 7.02982L15.9754 7.03202L15.9739 7.03423L15.9717 7.0357L15.968 7.04307L15.9643 7.05043L15.9621 7.0519C15.9612 7.05337 15.9301 7.09508 15.8689 7.17705C15.8078 7.2595 15.7747 7.30121 15.7698 7.30219C15.7649 7.30367 15.7581 7.31103 15.7493 7.32428C15.741 7.33801 15.6891 7.39274 15.5937 7.48844C15.4982 7.58414 15.4048 7.66928 15.3133 7.74389C15.2213 7.81897 15.1748 7.91124 15.1738 8.02068C15.1724 8.12963 15.1667 8.25282 15.1569 8.39023C15.1471 8.52765 15.1288 8.6761 15.1019 8.8356C15.075 8.9951 15.0334 9.17546 14.9771 9.37668C14.9208 9.57789 14.8523 9.7742 14.7716 9.9656C14.6908 10.157 14.6064 10.3288 14.5183 10.4809C14.4303 10.633 14.3495 10.7619 14.2761 10.8674C14.2027 10.9729 14.1281 11.0723 14.0522 11.1655C13.9764 11.2588 13.8805 11.3638 13.7645 11.4806C13.648 11.5969 13.5844 11.6607 13.5737 11.672C13.5624 11.6828 13.5145 11.723 13.4298 11.7927C13.3456 11.8629 13.2551 11.9331 13.1582 12.0033C13.0618 12.073 12.9732 12.1311 12.8925 12.1777C12.8118 12.2244 12.7144 12.2776 12.6004 12.3375C12.4868 12.3979 12.364 12.4538 12.2319 12.5053C12.0998 12.5569 11.9603 12.6047 11.8135 12.6489C11.6667 12.6931 11.5248 12.7274 11.3878 12.7519C11.2508 12.7765 11.0954 12.7973 10.9217 12.8145L10.6611 12.8403V12.844H10.184V12.8403L10.1216 12.8366C10.08 12.8341 10.0458 12.8317 10.0188 12.8292C9.99193 12.8268 9.89039 12.8133 9.71423 12.7888C9.53807 12.7642 9.39983 12.7397 9.29951 12.7151C9.1992 12.6906 9.04995 12.644 8.85176 12.5753C8.65358 12.5066 8.48402 12.4371 8.34309 12.3669C8.20266 12.2972 8.11457 12.2531 8.07885 12.2344C8.04362 12.2163 8.00398 12.1937 7.95994 12.1667L7.89388 12.1262L7.89242 12.124L7.89021 12.1225L7.88801 12.1211L7.88654 12.1189L7.8792 12.1152L7.87186 12.1115L7.8704 12.1093L7.86819 12.1078L7.86599 12.1063L7.86452 12.1041L7.86306 12.1019L7.86085 12.1004H7.85718V12.0857L7.86452 12.0872L7.87186 12.0894L7.90489 12.0931C7.92691 12.0955 7.98686 12.0992 8.08472 12.1041C8.18259 12.109 8.28657 12.109 8.39668 12.1041C8.50678 12.0992 8.61933 12.0882 8.73432 12.071C8.84932 12.0538 8.98511 12.0244 9.1417 11.9827C9.29829 11.9409 9.44216 11.8914 9.57331 11.834C9.70396 11.7761 9.79693 11.7329 9.85223 11.7044C9.90703 11.6764 9.99071 11.6244 10.1033 11.5483L10.2721 11.4342L10.2735 11.432L10.2757 11.4305L10.278 11.4291L10.2794 11.4269L10.2809 11.4247L10.2831 11.4232L10.2853 11.4217L10.2868 11.4195L10.2941 11.4173L10.3014 11.4158L10.3029 11.4085L10.3051 11.4011L10.3073 11.3996L10.3088 11.3974L10.2501 11.3937C10.2109 11.3913 10.173 11.3888 10.1363 11.3864C10.0996 11.3839 10.0421 11.3729 9.96379 11.3533C9.8855 11.3336 9.80109 11.3042 9.71056 11.2649C9.62003 11.2257 9.53195 11.179 9.44631 11.125C9.36068 11.0711 9.29878 11.0261 9.26061 10.9903C9.22293 10.955 9.174 10.9049 9.11381 10.8402C9.05411 10.7749 9.00224 10.7079 8.9582 10.6392C8.91416 10.5705 8.87207 10.4912 8.83195 10.4014L8.77102 10.2674L8.76735 10.2564L8.76368 10.2453L8.76148 10.238L8.76001 10.2306L8.77102 10.2321L8.78203 10.2343L8.86277 10.2453C8.91661 10.2527 9.00102 10.2552 9.11601 10.2527C9.23101 10.2502 9.31052 10.2453 9.35456 10.238C9.3986 10.2306 9.42552 10.2257 9.4353 10.2233L9.44998 10.2196L9.46833 10.2159L9.48668 10.2122L9.48815 10.21L9.49035 10.2085L9.49256 10.2071L9.49402 10.2048L9.47934 10.2012L9.46466 10.1975L9.44998 10.1938L9.4353 10.1901L9.42062 10.1864C9.41084 10.184 9.39371 10.1791 9.36924 10.1717C9.34478 10.1644 9.27872 10.1374 9.17106 10.0907C9.06341 10.0441 8.97777 9.99873 8.91416 9.95456C8.85038 9.91026 8.78957 9.86181 8.73212 9.80953C8.67487 9.75653 8.61199 9.68831 8.54348 9.60488C8.47497 9.52146 8.41381 9.42453 8.35998 9.3141C8.30615 9.20368 8.26578 9.09817 8.23886 8.99756C8.21206 8.89754 8.19437 8.79528 8.18602 8.69205L8.1728 8.53746L8.18014 8.53893L8.18748 8.54114L8.19482 8.54482L8.20216 8.5485L8.2095 8.55218L8.21684 8.55586L8.33062 8.60739C8.40647 8.64175 8.50066 8.6712 8.61321 8.69573C8.72576 8.72027 8.79304 8.73377 8.81506 8.73622L8.84809 8.7399H8.91416L8.91269 8.73769L8.91049 8.73622L8.90828 8.73475L8.90682 8.73254L8.90535 8.73033L8.90315 8.72886L8.90094 8.72739L8.89947 8.72518L8.89213 8.7215L8.88479 8.71782L8.88333 8.71561L8.88112 8.71414L8.87892 8.71266L8.87745 8.71046L8.87011 8.70678L8.86277 8.70309L8.86131 8.70089C8.85985 8.6999 8.8388 8.6842 8.79818 8.65377C8.75805 8.62285 8.71597 8.58286 8.67193 8.53378C8.62789 8.4847 8.58385 8.43317 8.53981 8.37919C8.49569 8.32508 8.45639 8.26719 8.42237 8.20619C8.38812 8.14485 8.3519 8.06681 8.31373 7.97209C8.27606 7.87787 8.24743 7.7829 8.22785 7.6872C8.20829 7.5915 8.19727 7.49703 8.19482 7.40378C8.19238 7.31053 8.19482 7.23079 8.20216 7.16453C8.2095 7.09828 8.22418 7.02343 8.2462 6.94C8.26822 6.85658 8.30004 6.76824 8.34163 6.67499L8.40402 6.53512L8.40769 6.52408L8.41136 6.51304L8.41357 6.51156L8.41503 6.50935L8.41649 6.50715L8.4187 6.50567L8.42091 6.50715L8.42237 6.50935L8.42384 6.51156L8.42604 6.51304L8.42825 6.51451L8.42971 6.51672L8.43118 6.51892L8.43338 6.5204L8.43705 6.52776L8.44072 6.53512L8.44293 6.53659L8.44439 6.5388L8.54348 6.64922C8.60954 6.72284 8.68784 6.80505 8.77836 6.89584C8.8689 6.98663 8.91905 7.03374 8.92884 7.03718C8.93863 7.0411 8.95086 7.05239 8.96554 7.07104C8.98022 7.0892 9.02915 7.13263 9.11234 7.20134C9.19553 7.27004 9.30441 7.3498 9.43897 7.44059C9.57355 7.53138 9.72279 7.62095 9.88672 7.70929C10.0507 7.79762 10.2268 7.87737 10.4152 7.94854C10.6036 8.0197 10.7357 8.06632 10.8116 8.08841C10.8874 8.11049 11.0171 8.13871 11.2006 8.17306C11.3841 8.20742 11.5224 8.2295 11.6153 8.23932C11.7083 8.24913 11.7719 8.25478 11.8062 8.25625L11.8575 8.25772L11.8561 8.24668L11.8539 8.23564L11.8392 8.14362C11.8294 8.08227 11.8245 7.99639 11.8245 7.88596C11.8245 7.77554 11.8331 7.67371 11.8502 7.58046C11.8673 7.48721 11.893 7.39274 11.9273 7.29704C11.9615 7.20134 11.9951 7.12453 12.0278 7.06662C12.0611 7.0092 12.1047 6.94369 12.1585 6.87007C12.2123 6.79645 12.2821 6.72039 12.3677 6.64186C12.4533 6.56334 12.5512 6.4934 12.6613 6.43206C12.7714 6.37071 12.8729 6.32409 12.9659 6.29219C13.0589 6.26029 13.1372 6.23943 13.2008 6.22962C13.2644 6.2198 13.2962 6.21416 13.2962 6.21268Z" fill="white"/>
<defs>
<filter id="filter0_d_125_14798" x="0.725268" y="0.426092" width="22.4038" height="22.4038" filterUnits="userSpaceOnUse" color-interpolation-filters="sRGB">
<feFlood flood-opacity="0" result="BackgroundImageFix"/>
<feColorMatrix in="SourceAlpha" type="matrix" values="0 0 0 0 0 0 0 0 0 0 0 0 0 0 0 0 0 0 127 0" result="hardAlpha"/>
<feOffset dy="2.10036"/>
<feGaussianBlur stdDeviation="1.92533"/>
<feColorMatrix type="matrix" values="0 0 0 0 0.113725 0 0 0 0 0.631373 0 0 0 0 0.94902 0 0 0 0.25 0"/>
<feBlend mode="normal" in2="BackgroundImageFix" result="effect1_dropShadow_125_14798"/>
<feBlend mode="normal" in="SourceGraphic" in2="effect1_dropShadow_125_14798" result="shape"/>
</filter>
</defs>
</svg>
