<svg width="25" height="25" viewBox="0 0 25 25" fill="none" xmlns="http://www.w3.org/2000/svg">
<rect y="0.287598" width="24.5803" height="24.5803" fill="#1D9BF0"/>
<path d="M18.7644 9.70666C18.7735 9.83847 18.7735 9.97028 18.7735 10.1033C18.7735 14.1565 15.6879 18.8311 10.0457 18.8311V18.8287C8.37897 18.8311 6.74686 18.3537 5.34375 17.4535C5.58611 17.4827 5.82968 17.4973 6.07385 17.4979C7.4551 17.4991 8.79686 17.0356 9.88351 16.1822C8.57091 16.1573 7.41987 15.3015 7.01777 14.0521C7.47757 14.1407 7.95135 14.1225 8.40265 13.9992C6.9716 13.7101 5.94205 12.4528 5.94205 10.9925C5.94205 10.9792 5.94205 10.9664 5.94205 10.9537C6.36845 11.1912 6.84587 11.323 7.33422 11.3376C5.98639 10.4368 5.57092 8.6437 6.38485 7.2418C7.94224 9.15817 10.2401 10.3232 12.7067 10.4465C12.4595 9.38109 12.7972 8.26468 13.5942 7.51574C14.8296 6.35438 16.7727 6.41391 17.9341 7.64877C18.6211 7.51331 19.2795 7.26124 19.8821 6.90408C19.6531 7.61414 19.1738 8.2173 18.5336 8.60057C19.1416 8.5289 19.7357 8.36611 20.2951 8.11768C19.8833 8.73481 19.3645 9.27237 18.7644 9.70666Z" fill="white"/>
</svg>
