<svg width="14" height="11" viewBox="0 0 14 11" fill="none" xmlns="http://www.w3.org/2000/svg">
<path d="M8.95828 0.0967292V0.0943909H9.58693L9.81663 0.138819C9.96977 0.167663 10.1088 0.205462 10.2337 0.252229C10.3586 0.298996 10.4795 0.353561 10.5964 0.415913C10.7133 0.478264 10.8193 0.541797 10.9144 0.606487C11.0087 0.670406 11.0933 0.738218 11.1682 0.809923C11.2424 0.882411 11.358 0.901118 11.5152 0.866043C11.6724 0.830968 11.8416 0.782248 12.023 0.719897C12.2043 0.657545 12.3836 0.587395 12.5609 0.509446C12.7382 0.431498 12.8463 0.382007 12.8849 0.360962C12.9228 0.339145 12.943 0.327453 12.9454 0.325886L12.9478 0.322379L12.9599 0.316533L12.972 0.310687L12.9841 0.304841L12.9962 0.298996L12.9986 0.295488L13.0022 0.29315L13.0058 0.290811L13.0082 0.287304L13.0203 0.283796L13.0324 0.281458L13.03 0.298996L13.0264 0.316533L13.0203 0.334071L13.0143 0.351608L13.0082 0.3633L13.0022 0.374992L12.9962 0.392529C12.9921 0.404221 12.9881 0.419806 12.9841 0.439296C12.98 0.458786 12.9418 0.536723 12.8692 0.67313C12.7967 0.809537 12.706 0.947885 12.5972 1.08819C12.4884 1.22849 12.3909 1.33448 12.3046 1.4062C12.2176 1.47869 12.16 1.52935 12.1318 1.55819C12.1036 1.58781 12.0693 1.61508 12.029 1.64003L11.9685 1.67862L11.9565 1.68446L11.9444 1.69031L11.942 1.69381L11.9383 1.69615L11.9347 1.69849L11.9323 1.702L11.9202 1.70785L11.9081 1.71369L11.9057 1.7172L11.9021 1.71954L11.8984 1.72188L11.896 1.72538L11.8936 1.72889L11.89 1.73123L11.8863 1.73357L11.8839 1.73707H11.9444L12.2829 1.66692C12.5085 1.62016 12.7241 1.56365 12.9297 1.49739L13.2561 1.39217L13.2923 1.38048L13.3105 1.37463L13.3226 1.36879L13.3347 1.36294L13.3467 1.35709L13.3588 1.35125L13.383 1.34774L13.4072 1.3454V1.36879L13.4011 1.37112L13.3951 1.37463L13.3927 1.37814L13.3891 1.38048L13.3854 1.38282L13.383 1.38632L13.3806 1.38983L13.377 1.39217L13.3733 1.39451L13.3709 1.39802L13.3685 1.40152L13.3649 1.40386L13.3588 1.41555L13.3528 1.42724L13.3492 1.42958C13.3476 1.43192 13.2964 1.49817 13.1956 1.62834C13.0949 1.75929 13.0405 1.82553 13.0324 1.8271C13.0244 1.82944 13.0131 1.84113 12.9986 1.86218C12.9849 1.88399 12.8994 1.97091 12.7423 2.1229C12.5851 2.27489 12.4312 2.41012 12.2805 2.5286C12.129 2.64786 12.0524 2.79439 12.0508 2.96821C12.0484 3.14125 12.0391 3.3369 12.023 3.55513C12.0068 3.77338 11.9766 4.00916 11.9323 4.26248C11.888 4.5158 11.8195 4.80225 11.7268 5.12182C11.6341 5.44139 11.5212 5.75317 11.3883 6.05716C11.2553 6.36114 11.1162 6.63394 10.9712 6.87558C10.8261 7.11721 10.6931 7.32181 10.5722 7.48939C10.4513 7.65697 10.3284 7.8148 10.2035 7.9629C10.0786 8.111 9.92061 8.27781 9.7296 8.46331C9.53777 8.64804 9.43301 8.74937 9.41527 8.76729C9.39674 8.78444 9.31776 8.84836 9.17831 8.95904C9.03969 9.07049 8.89058 9.18195 8.731 9.29342C8.57223 9.4041 8.42634 9.49647 8.29336 9.57051C8.16037 9.64456 8 9.72912 7.8122 9.82422C7.62522 9.92009 7.42292 10.009 7.20531 10.0908C6.9877 10.1726 6.758 10.2486 6.51621 10.3188C6.27442 10.3889 6.0407 10.4435 5.81502 10.4825C5.58936 10.5214 5.33346 10.5546 5.04734 10.5818L4.61817 10.6228V10.6286H3.83235V10.6228L3.72959 10.6169C3.66109 10.613 3.60467 10.6091 3.56034 10.6052C3.51602 10.6013 3.34878 10.5799 3.05863 10.5409C2.76848 10.502 2.5408 10.463 2.37558 10.424C2.21036 10.385 1.96453 10.311 1.63812 10.2019C1.3117 10.0927 1.03244 9.98244 0.800321 9.87099C0.569014 9.7603 0.423941 9.69015 0.365101 9.66054C0.307072 9.63169 0.241789 9.59585 0.169252 9.55297L0.0604472 9.48867L0.0580414 9.48516L0.0544025 9.48282L0.0507757 9.48048L0.0483578 9.47698L0.0362683 9.47113L0.0241789 9.46529L0.0217731 9.46178L0.0181342 9.45944L0.0145073 9.4571L0.0120894 9.45359L0.00968365 9.45009L0.00604472 9.44775H0V9.42437L0.0120894 9.4267L0.0241789 9.43021L0.0785814 9.43606C0.11485 9.43995 0.213584 9.4458 0.374773 9.45359C0.535973 9.46139 0.707232 9.46139 0.888574 9.45359C1.06992 9.4458 1.2553 9.42826 1.44469 9.40098C1.63409 9.3737 1.85775 9.32694 2.11565 9.26068C2.37357 9.19442 2.61052 9.1157 2.82652 9.02451C3.04172 8.93254 3.19484 8.86395 3.28592 8.81874C3.37618 8.77431 3.514 8.69168 3.69937 8.57087L3.97743 8.38965L3.97985 8.38614L3.98347 8.3838L3.98711 8.38147L3.98952 8.37796L3.99193 8.37445L3.99556 8.37211L3.9992 8.36977L4.00161 8.36627L4.0137 8.36276L4.02578 8.36042L4.0282 8.34873L4.03183 8.33704L4.03547 8.3347L4.03787 8.33119L3.94116 8.32535C3.87669 8.32145 3.81422 8.31755 3.75377 8.31365C3.69333 8.30976 3.59863 8.29222 3.46967 8.26104C3.34072 8.22986 3.2017 8.18309 3.05258 8.12074C2.90349 8.05839 2.75841 7.98433 2.61736 7.8986C2.47633 7.81286 2.37437 7.74153 2.3115 7.68464C2.24945 7.62851 2.16885 7.54902 2.06971 7.44613C1.97139 7.34247 1.88595 7.23607 1.81342 7.12695C1.74088 7.01783 1.67157 6.89193 1.60549 6.7493L1.50514 6.53652L1.49909 6.51898L1.49305 6.50144L1.48942 6.48975L1.487 6.47806L1.50514 6.4804L1.52327 6.4839L1.65625 6.50144C1.74492 6.51313 1.88395 6.51703 2.07334 6.51313C2.26275 6.50924 2.39371 6.50144 2.46625 6.48975C2.53878 6.47806 2.58312 6.47026 2.59923 6.46637L2.62341 6.46052L2.65363 6.45467L2.68386 6.44883L2.68627 6.44532L2.6899 6.44298L2.69354 6.44064L2.69595 6.43714L2.67177 6.43129L2.64759 6.42544L2.62341 6.4196L2.59923 6.41375L2.57505 6.40791C2.55894 6.40401 2.53073 6.39622 2.49043 6.38452C2.45013 6.37283 2.34133 6.32996 2.16401 6.25592C1.98671 6.18187 1.84566 6.10977 1.74088 6.03962C1.63584 5.96927 1.53569 5.89232 1.44106 5.80929C1.34676 5.72511 1.24321 5.61677 1.13036 5.48426C1.01753 5.35176 0.916791 5.19782 0.828127 5.02244C0.739475 4.84707 0.672983 4.67949 0.628651 4.5197C0.584497 4.36085 0.555367 4.19844 0.541619 4.03449L0.519846 3.78897L0.531936 3.79131L0.544025 3.79481L0.556114 3.80066L0.568204 3.8065L0.580293 3.81235L0.592383 3.8182L0.779769 3.90004C0.904701 3.9546 1.05985 4.00137 1.24521 4.04034C1.43059 4.07931 1.5414 4.10075 1.57767 4.10464L1.63207 4.11049H1.74088L1.73847 4.10698L1.73484 4.10464L1.73121 4.1023L1.72879 4.0988L1.72638 4.09529L1.72275 4.09295L1.71912 4.09061L1.7167 4.08711L1.70461 4.08126L1.69252 4.07541L1.69012 4.07191L1.68648 4.06957L1.68285 4.06723L1.68043 4.06372L1.66834 4.05788L1.65625 4.05203L1.65385 4.04852C1.65143 4.04696 1.61677 4.02202 1.54987 3.9737C1.48377 3.92459 1.41446 3.86107 1.34193 3.78312C1.26939 3.70517 1.19685 3.62333 1.12432 3.5376C1.05165 3.45166 0.986922 3.35973 0.930887 3.26284C0.874478 3.16541 0.814829 3.04147 0.751963 2.89104C0.689908 2.74139 0.64276 2.59057 0.610517 2.43858C0.578286 2.28658 0.560152 2.13654 0.556114 1.98845C0.552089 1.84035 0.556114 1.71369 0.568204 1.60847C0.580293 1.50324 0.604472 1.38437 0.640741 1.25187C0.677009 1.11937 0.729405 0.979066 0.797903 0.830968L0.900664 0.608826L0.906708 0.591288L0.912753 0.57375L0.916392 0.571412L0.918798 0.567905L0.921216 0.564397L0.924842 0.562059L0.928481 0.564397L0.930887 0.567905L0.933305 0.571412L0.936932 0.57375L0.940571 0.576089L0.942977 0.579596L0.945395 0.583104L0.949021 0.585442L0.955066 0.597134L0.961111 0.608826L0.96475 0.611164L0.967156 0.614671L1.13036 0.790047C1.23917 0.906964 1.36813 1.03752 1.51723 1.18172C1.66634 1.32591 1.74894 1.40074 1.76506 1.4062C1.78119 1.41243 1.80133 1.43035 1.82551 1.45998C1.84968 1.48882 1.93029 1.55781 2.0673 1.66692C2.20432 1.77604 2.38364 1.90271 2.60528 2.0469C2.82692 2.1911 3.07274 2.33335 3.34273 2.47365C3.61274 2.61395 3.90288 2.74061 4.21317 2.85363C4.52347 2.96666 4.74108 3.0407 4.866 3.07577C4.99093 3.11085 5.20451 3.15566 5.50674 3.21023C5.80898 3.26479 6.03667 3.29987 6.1898 3.31545C6.34293 3.33104 6.44771 3.34001 6.50412 3.34234L6.58875 3.34468L6.58634 3.32715L6.5827 3.30961L6.55852 3.16346C6.54241 3.06603 6.53434 2.92963 6.53434 2.75425C6.53434 2.57888 6.54845 2.41715 6.57666 2.26905C6.60487 2.12095 6.64719 1.97091 6.7036 1.81892C6.76002 1.66692 6.81523 1.54493 6.86922 1.45297C6.92404 1.36177 6.99576 1.25771 7.08441 1.1408C7.17308 1.02388 7.28793 0.90307 7.42896 0.778355C7.57001 0.65364 7.7312 0.542569 7.91254 0.445142C8.09388 0.347715 8.26113 0.27366 8.41425 0.223C8.56739 0.172339 8.69635 0.139205 8.80112 0.12362C8.90589 0.108035 8.95828 0.0990675 8.95828 0.0967292Z" fill="#F9F9F9"/>
</svg>
