<svg width="34" height="34" viewBox="0 0 34 34" fill="none" xmlns="http://www.w3.org/2000/svg">
<g filter="url(#filter0_d_108_1885)">
<rect x="5" y="2.51709" width="24" height="24" rx="6.66052" fill="white"/>
</g>
<path d="M24.1413 10.4242C23.7143 10.6079 23.2654 10.7359 22.8057 10.8049C23.0206 10.7681 23.3369 10.3812 23.4628 10.2246C23.654 9.98842 23.7997 9.71879 23.8926 9.42941C23.8926 9.40792 23.9141 9.37721 23.8926 9.36186C23.8818 9.35595 23.8696 9.35285 23.8573 9.35285C23.8449 9.35285 23.8328 9.35595 23.822 9.36186C23.3228 9.63218 22.7915 9.83849 22.2408 9.97592C22.2216 9.98179 22.2011 9.98231 22.1817 9.97745C22.1622 9.97258 22.1444 9.9625 22.1302 9.94829C22.0874 9.89724 22.0412 9.84904 21.9921 9.80399C21.7674 9.60271 21.5126 9.43798 21.2368 9.31581C20.8645 9.16308 20.4624 9.09694 20.0608 9.12238C19.6712 9.14699 19.2908 9.2515 18.9433 9.42941C18.601 9.61698 18.3003 9.8718 18.059 10.1786C17.8052 10.4943 17.622 10.8607 17.5217 11.2532C17.439 11.6265 17.4296 12.0123 17.4941 12.3892C17.4941 12.4537 17.4941 12.4629 17.4388 12.4537C15.2497 12.1313 13.4535 11.3545 11.9859 9.68731C11.9215 9.61363 11.8877 9.61363 11.8355 9.68731C11.1969 10.6575 11.507 12.1927 12.3052 12.9511C12.4127 13.0524 12.5232 13.1506 12.6399 13.2427C12.2739 13.2168 11.9168 13.1176 11.5899 12.9511C11.5285 12.9111 11.4947 12.9326 11.4916 13.0063C11.4829 13.1085 11.4829 13.2112 11.4916 13.3134C11.5557 13.8029 11.7486 14.2667 12.0507 14.6573C12.3528 15.0479 12.7532 15.3512 13.211 15.5363C13.3226 15.5841 13.4389 15.6201 13.5579 15.6437C13.2191 15.7104 12.8716 15.7208 12.5294 15.6744C12.4557 15.6591 12.4281 15.699 12.4557 15.7696C12.907 16.9977 13.8865 17.3723 14.6049 17.5811C14.7032 17.5964 14.8014 17.5964 14.9119 17.621C14.9119 17.621 14.9119 17.621 14.8935 17.6394C14.6817 18.0263 13.825 18.2873 13.432 18.4224C12.7147 18.68 11.9499 18.7785 11.1907 18.711C11.071 18.6925 11.0433 18.6956 11.0126 18.711C10.9819 18.7263 11.0126 18.7601 11.0464 18.7908C11.1999 18.8921 11.3534 18.9811 11.5131 19.0671C11.9884 19.3264 12.4909 19.5323 13.0114 19.6812C15.7071 20.4242 18.7406 19.8777 20.7639 17.8666C22.3544 16.2885 22.9132 14.1116 22.9132 11.9317C22.9132 11.8488 23.0145 11.7997 23.0728 11.7567C23.4752 11.4432 23.8299 11.0729 24.1259 10.6575C24.1772 10.5956 24.2035 10.5168 24.1996 10.4365C24.1996 10.3904 24.1996 10.3996 24.1413 10.4242Z" fill="#1D9BF0"/>
<defs>
<filter id="filter0_d_108_1885" x="0.2" y="0.11709" width="33.6" height="33.6" filterUnits="userSpaceOnUse" color-interpolation-filters="sRGB">
<feFlood flood-opacity="0" result="BackgroundImageFix"/>
<feColorMatrix in="SourceAlpha" type="matrix" values="0 0 0 0 0 0 0 0 0 0 0 0 0 0 0 0 0 0 127 0" result="hardAlpha"/>
<feOffset dy="2.4"/>
<feGaussianBlur stdDeviation="2.4"/>
<feComposite in2="hardAlpha" operator="out"/>
<feColorMatrix type="matrix" values="0 0 0 0 0.570833 0 0 0 0 0.570833 0 0 0 0 0.570833 0 0 0 0.15 0"/>
<feBlend mode="normal" in2="BackgroundImageFix" result="effect1_dropShadow_108_1885"/>
<feBlend mode="normal" in="SourceGraphic" in2="effect1_dropShadow_108_1885" result="shape"/>
</filter>
</defs>
</svg>
