<svg width="23" height="24" viewBox="0 0 23 24" fill="none" xmlns="http://www.w3.org/2000/svg">
<circle cx="11.4907" cy="12.3348" r="11.4907" fill="#075FE4"/>
<path d="M16.0609 10.7414C16.0609 10.7414 14.8518 14.5388 14.7533 14.8523C14.7175 14.5299 13.8308 7.71417 13.8308 7.71417C11.7709 7.71417 10.6693 9.18299 10.0871 10.7324C10.0871 10.7324 8.61831 14.5388 8.49293 14.8612C8.48397 14.5657 8.26902 10.7772 8.26902 10.7772C8.14363 8.87848 6.40613 7.72313 5 7.72313L6.70168 18.0497C8.86013 18.0407 10.0244 16.5808 10.6335 15.0314C10.6335 15.0314 11.9321 11.6728 11.9859 11.5206C11.9948 11.6639 12.9173 18.0497 12.9173 18.0497C15.0847 18.0497 16.249 16.6793 16.876 15.1837L19.9121 7.72313C17.7716 7.72313 16.6431 9.18299 16.0609 10.7414Z" fill="white"/>
</svg>
