<svg width="11" height="11" viewBox="0 0 11 11" fill="none" xmlns="http://www.w3.org/2000/svg">
<path fill-rule="evenodd" clip-rule="evenodd" d="M9.29686 1.63645C8.27387 0.612253 6.91336 0.0479639 5.46396 0.0473633C2.47733 0.0473633 0.0466515 2.47798 0.0454502 5.46541C0.0450497 6.4204 0.294525 7.35263 0.768715 8.17433L0 10.9821L2.87244 10.2286C3.66391 10.6603 4.55496 10.8879 5.46176 10.8881H5.46403C8.45033 10.8881 10.8813 8.45731 10.8824 5.46975C10.883 4.02188 10.3199 2.66058 9.29686 1.63645ZM5.46396 9.97305H5.4621C4.654 9.97272 3.86146 9.75554 3.1699 9.34529L3.00552 9.24765L1.30097 9.69481L1.75594 8.03291L1.64882 7.86252C1.19799 7.14546 0.959926 6.31668 0.960327 5.46574C0.961261 2.98267 2.98162 0.962507 5.46577 0.962507C6.66869 0.962907 7.79948 1.43196 8.64975 2.28323C9.50002 3.1345 9.968 4.26602 9.9676 5.46941C9.96653 7.95269 7.9463 9.97305 5.46396 9.97305ZM7.93429 6.60006C7.79894 6.53225 7.13327 6.20483 7.00914 6.15958C6.88513 6.11439 6.79477 6.0919 6.7046 6.22738C6.6143 6.36287 6.35488 6.66787 6.27586 6.75817C6.19684 6.84854 6.11795 6.85988 5.98254 6.79207C5.84712 6.72433 5.41091 6.58131 4.89374 6.12007C4.49129 5.76107 4.21959 5.31771 4.14057 5.18223C4.06168 5.04661 4.1399 4.98041 4.19997 4.90593C4.34653 4.72392 4.49329 4.53311 4.53841 4.44281C4.58359 4.35245 4.56097 4.27336 4.52706 4.20562C4.49329 4.13788 4.22253 3.47148 4.10974 3.20031C3.99975 2.93642 3.88823 2.97206 3.80507 2.96792C3.72618 2.96398 3.63588 2.96318 3.54558 2.96318C3.45535 2.96318 3.30865 2.99702 3.18452 3.13263C3.06044 3.26818 2.71073 3.59568 2.71073 4.26208C2.71073 4.92848 3.19586 5.57226 3.26354 5.66263C3.33121 5.75299 4.21826 7.1205 5.57636 7.70688C5.89938 7.8465 6.15152 7.92973 6.34821 7.99213C6.67257 8.09518 6.96762 8.08063 7.20095 8.04579C7.4611 8.00688 8.0019 7.71823 8.11482 7.40201C8.22762 7.08573 8.22762 6.8147 8.19371 6.75817C8.15994 6.70171 8.06964 6.66787 7.93429 6.60006Z" fill="#1A1A1A"/>
</svg>
