<svg width="25" height="26" viewBox="0 0 25 26" fill="none" xmlns="http://www.w3.org/2000/svg">
<rect y="0.798424" width="24.5803" height="24.5803" fill="#FF0000"/>
<path d="M19.2186 9.58511C19.0523 8.95889 18.5623 8.46571 17.94 8.29833C16.8123 7.99416 12.2901 7.99416 12.2901 7.99416C12.2901 7.99416 7.76802 7.99416 6.6403 8.29833C6.01801 8.46571 5.52792 8.95889 5.36171 9.58511C5.05957 10.7202 5.05957 13.0885 5.05957 13.0885C5.05957 13.0885 5.05957 15.4566 5.36171 16.5918C5.52792 17.2181 6.01801 17.7112 6.64024 17.8787C7.76796 18.1828 12.2901 18.1828 12.2901 18.1828C12.2901 18.1828 16.8123 18.1828 17.9399 17.8787C18.5622 17.7112 19.0522 17.2181 19.2185 16.5919C19.5207 15.4567 19.5207 13.0885 19.5207 13.0885C19.5207 13.0885 19.5207 10.7202 19.2185 9.58518" fill="white"/>
<path d="M10.8105 15.2384L14.5902 13.0883L10.8105 10.938V15.2384Z" fill="#FF0000"/>
</svg>
